<svg width="432" height="165" viewBox="0 0 432 165" fill="none" xmlns="http://www.w3.org/2000/svg">
<path d="M73.3532 159.5V126.991H5.83491L0 112.404L50.0135 5.49999H81.4804L36.6766 100.734H73.3532V70.726L79.3965 53.0128H104.195V100.734H120.032V121.99L104.195 126.991V159.5H73.3532Z" fill="#1A1B20"/>
<path d="M255.642 132.874C252.341 131.752 240.481 116.765 240.481 116.765L220.494 89.2078C212.309 75.3647 203.995 89.2078 203.995 89.2078L188.969 112.151C178.418 122.621 176.269 113.392 176.269 113.392L171.618 106.115C164.103 95.6453 158.56 106.115 158.56 106.115L144.484 127.4C154.491 153.562 176.793 164.13 216.233 164.13C252.138 164.13 273.724 155.225 284.701 133.534C275.141 133.333 258.844 133.956 255.647 132.869L255.642 132.874Z" fill="black"/>
<path d="M181.27 22.5157C181.27 22.5157 190.037 10.6244 198.979 25.3533L234.397 75.2308C234.397 75.2308 245.177 91.0721 257.384 72.97L266.373 60.3216C266.373 60.3216 272.145 50.8714 281.129 60.8521L293.772 78.1354C292.713 21.9183 271.335 0.870361 216.226 0.870361C161.117 0.870361 139.017 22.011 138.031 78.5062L181.27 22.5157Z" fill="#FC0A8B"/>
<path d="M385.127 159.5V126.991H317.608L311.773 112.404L361.787 5.49999H393.254L348.45 100.734H385.127V70.726L391.17 53.0128H415.968V100.734H431.806V121.99L415.968 126.991V159.5H385.127Z" fill="#1A1B20"/>
</svg>
