<svg width="431" height="155" viewBox="0 0 431 155" fill="none" xmlns="http://www.w3.org/2000/svg">
<path d="M52.7114 154.546C44.3051 154.546 35.4855 154.202 26.2523 153.513C17.0192 152.824 8.26846 152.066 0 151.239V127.054H53.9517C58.9128 127.054 62.7714 126.227 65.5275 124.573C68.4215 122.919 70.4197 120.783 71.5222 118.165C72.7624 115.409 73.3826 112.584 73.3826 109.69V99.1475C73.3826 94.3242 72.1423 90.5345 69.6618 87.7784C67.319 84.8844 63.3226 83.4375 57.6725 83.4375H45.6832C41.1356 83.4375 37.6904 84.4021 35.3477 86.3314C33.1427 88.1229 31.6958 90.948 31.0067 94.8066H2.06711L6.40805 0.546173H98.1879V28.0388H32.6604L31.0067 64.42C33.0738 62.2151 35.8989 60.5614 39.4819 59.4589C43.2027 58.2187 47.3369 57.5985 51.8846 57.5985H68.6282C76.621 57.5985 83.2358 59.1833 88.4725 62.3529C93.7092 65.5225 97.6367 69.8634 100.255 75.3757C102.873 80.7502 104.183 86.8137 104.183 93.5663V116.098C104.183 125.055 102.184 132.359 98.1879 138.009C94.1915 143.659 88.4036 147.863 80.8242 150.619C73.2447 153.237 63.8738 154.546 52.7114 154.546Z" fill="#1A1B20"/>
<path d="M231.683 124.447C228.609 123.401 217.568 109.448 217.568 109.448L198.959 83.7914C191.339 70.903 183.597 83.7914 183.597 83.7914L169.608 105.152C159.784 114.9 157.784 106.308 157.784 106.308L153.454 99.5327C146.457 89.7849 141.296 99.5327 141.296 99.5327L128.191 119.35C137.508 143.707 158.272 153.546 194.992 153.546C228.421 153.546 248.518 145.256 258.738 125.06C249.837 124.873 234.664 125.453 231.688 124.442L231.683 124.447Z" fill="black"/>
<path d="M162.441 21.6987C162.441 21.6987 170.602 10.6275 178.928 24.3407L211.903 70.7783C211.903 70.7783 221.94 85.5271 233.305 68.6734L241.674 56.8974C241.674 56.8974 247.048 48.0989 255.412 57.3912L267.184 73.4826C266.198 21.1425 246.294 1.54617 194.986 1.54617C143.677 1.54617 123.102 21.2288 122.184 73.8278L162.441 21.6987Z" fill="#FC0A8B"/>
<path d="M394.683 124.447C391.609 123.401 380.568 109.448 380.568 109.448L361.959 83.7914C354.339 70.903 346.597 83.7914 346.597 83.7914L332.608 105.152C322.784 114.9 320.784 106.308 320.784 106.308L316.454 99.5327C309.457 89.7849 304.296 99.5327 304.296 99.5327L291.191 119.35C300.508 143.707 321.272 153.546 357.992 153.546C391.421 153.546 411.518 145.256 421.738 125.06C412.837 124.873 397.664 125.453 394.688 124.442L394.683 124.447Z" fill="black"/>
<path d="M325.441 21.6987C325.441 21.6987 333.602 10.6275 341.928 24.3407L374.903 70.7783C374.903 70.7783 384.94 85.5271 396.305 68.6734L404.674 56.8974C404.674 56.8974 410.048 48.0989 418.412 57.3912L430.184 73.4826C429.198 21.1425 409.294 1.54617 357.986 1.54617C306.677 1.54617 286.102 21.2288 285.184 73.8278L325.441 21.6987Z" fill="#FC0A8B"/>
</svg>
