<svg width="48" height="65" viewBox="0 0 48 65" fill="none" xmlns="http://www.w3.org/2000/svg">
<path d="M36.8257 64.7072L23.9336 61.0776C23.609 60.9856 23.2629 60.991 22.9419 61.0902L11.568 64.6261C10.4429 64.9759 9.30151 64.1356 9.30151 62.9564V46.7953C9.30151 45.8306 10.0841 45.0481 11.0487 45.0481H37.2999C38.2646 45.0481 39.0471 45.8306 39.0471 46.7953V63.0213C39.0471 64.1807 37.94 65.0173 36.8257 64.7036V64.7072Z" fill="#C00000"/>
<path d="M0.273438 18.75V38.8346C0.273438 41.7755 1.78984 44.5071 4.28532 46.0632L19.471 55.5258C22.2279 57.2442 25.7223 57.2442 28.4792 55.5258L43.6648 46.0632C46.1603 44.5071 47.6767 41.7755 47.6767 38.8346V18.75C47.6767 15.8091 46.1603 13.0775 43.6648 11.5214L28.4792 2.05878C25.7223 0.340433 22.2279 0.340433 19.471 2.05878L4.28532 11.5214C1.78984 13.0775 0.273438 15.8091 0.273438 18.75Z" fill="#FF3F00"/>
<path d="M21.0613 19.1034C22.7724 18.5445 24.6855 18.5463 26.3966 19.1034V13.9177C26.3966 13.8925 26.6166 13.5138 26.6617 13.4724C26.7644 13.3768 27.0511 13.2524 27.1954 13.2362C27.9347 13.146 30.1939 13.146 30.9332 13.2362C31.384 13.2921 31.7031 13.6509 31.7356 14.0944V23.3389C32.7669 25.1798 32.9184 27.2552 33.2411 29.3017C33.2826 29.363 33.3565 29.3522 33.4197 29.3594C35.5996 29.6317 38.4016 28.5696 38.8974 31.8242C38.7983 33.6634 39.0561 35.6883 38.9047 37.5058C38.8361 38.3172 38.4052 39.1322 37.7146 39.5757C36.7428 40.1996 35.6771 39.9922 34.5809 40.0283C34.2599 42.0027 32.446 43.492 30.4608 43.584C26.0486 43.3694 21.3822 43.8581 17.0007 43.584C14.9921 43.4578 13.225 42.0351 12.8806 40.0283C11.9611 39.9886 11.0451 40.1545 10.176 39.7993C9.20956 39.4044 8.63076 38.4776 8.55504 37.4499C8.44324 35.9479 8.44324 33.4344 8.55504 31.9342C8.66683 30.4341 9.69098 29.464 11.1335 29.3558C12.0891 29.2837 13.1331 29.4135 14.0995 29.3576L14.2384 29.2584C14.5359 27.2245 14.7054 25.1618 15.7259 23.3371V14.0926C15.7566 13.6509 16.0775 13.2903 16.5283 13.2344C17.2676 13.1442 19.5268 13.1442 20.2661 13.2344C20.4104 13.2524 20.6971 13.375 20.7998 13.4706C20.8467 13.5138 21.0649 13.8907 21.0649 13.9159V19.1016L21.0613 19.1034ZM19.2834 15.014H17.5056V21.1193C18.0537 20.6487 18.6199 20.1763 19.2834 19.8752V15.0158V15.014ZM29.9523 15.014H28.1745V19.8733C28.838 20.1745 29.4042 20.6487 29.9523 21.1175V15.0122V15.014ZM30.01 24.0223C30.0605 23.9772 29.4871 23.191 29.415 23.1063C26.1875 19.2603 20.0137 19.684 17.4425 23.9934C19.6711 24.1142 21.2416 22.3706 23.3999 22.2462C25.7511 22.111 27.0529 23.6454 29.2149 23.9591C29.4727 23.997 29.7504 23.9591 30.0082 24.0241L30.01 24.0223ZM22.8391 24.1413C22.0458 24.2981 21.3804 24.8138 20.6448 25.1185C19.379 25.6432 17.9906 25.847 16.6221 25.8091C16.4742 26.2815 16.4093 26.7756 16.3282 27.2642C15.67 31.1607 15.1778 35.0878 14.5377 38.9861C14.4962 39.8931 14.938 40.8649 15.7259 41.3301C15.8071 39.6965 15.5889 37.9439 15.7944 36.3302C16.2524 32.715 19.2131 29.7921 22.8391 29.4171V24.1431V24.1413ZM24.617 24.1413V29.4153C28.243 29.7903 31.2037 32.7132 31.6616 36.3284C31.8672 37.9421 31.649 39.6947 31.7302 41.3283C32.5181 40.8631 32.9581 39.8913 32.9184 38.9843C32.2783 35.086 31.7861 31.1571 31.1279 27.2624C31.045 26.7756 30.9801 26.2815 30.834 25.8073C29.4655 25.847 28.0807 25.6396 26.8113 25.1167C26.0721 24.812 25.4103 24.2999 24.617 24.1395V24.1413ZM13.9481 31.1337H11.0145C10.8396 31.1337 10.3329 31.6403 10.3329 31.8152V32.9115H13.6524L13.9481 31.1337ZM29.9523 41.8025C29.8081 39.1808 30.4662 36.451 29.0291 34.1033C26.7031 30.3006 21.2055 30.1311 18.6433 33.7842C16.9412 36.2093 17.648 39.0168 17.5056 41.8043H29.9523V41.8025ZM36.4416 31.1337H33.508L33.8037 32.9115H37.1232V31.8152C37.1232 31.6187 36.64 31.1751 36.4416 31.1337ZM13.3549 34.6911H10.3311V37.5653C10.3311 37.7834 10.7999 38.1855 11.0253 38.2342C11.1984 38.2703 12.7508 38.2739 12.8229 38.2216L13.3531 34.6911H13.3549ZM37.1232 34.6911H34.0994L34.6295 38.2216C34.7017 38.2739 36.2541 38.2703 36.4272 38.2342C36.6526 38.1873 37.1214 37.7853 37.1214 37.5653V34.6911H37.1232Z" fill="white"/>
<path d="M22.8391 38.247V39.3433C22.8391 39.3686 22.6191 39.7472 22.5741 39.7887C22.0602 40.2665 21.1731 39.9762 21.0649 39.2802C21.0378 39.1053 21.0973 38.2831 21.0613 38.247C20.423 38.247 19.5178 38.3949 19.3105 37.5979C19.1843 37.1111 19.4655 36.6441 19.9325 36.4981L27.428 36.4746C28.4197 36.7126 28.4197 38.0072 27.428 38.2452L22.8373 38.2488L22.8391 38.247Z" fill="white"/>
<path opacity="0.2" d="M44.4939 38.63L7.58282 15.1357L5.83022 16.2284C5.75269 16.2771 5.67876 16.3276 5.60303 16.3799L44.4867 41.1291C44.4885 41.0588 44.4939 40.9885 44.4939 40.9181V38.63Z" fill="white"/>
<path opacity="0.2" d="M44.4938 36.9874V28.9185L15.2909 10.3323L9.29565 14.0683L44.4938 36.9874Z" fill="white"/>
<g opacity="0.2">
<path d="M3.27344 29.0936V40.1772L26.3566 55.2078C26.4918 55.1393 26.6235 55.0653 26.7533 54.9842L35.4442 49.5677L3.27524 29.0918L3.27344 29.0936Z" fill="white"/>
</g>
</svg>
