<svg width="48" height="65" viewBox="0 0 48 65" fill="none" xmlns="http://www.w3.org/2000/svg">
<path d="M36.8257 63.9982L23.9336 60.3686C23.609 60.2766 23.2629 60.282 22.9419 60.3812L11.568 63.9171C10.4429 64.2669 9.30151 63.4266 9.30151 62.2474V46.0863C9.30151 45.1217 10.0841 44.3391 11.0487 44.3391H37.2999C38.2646 44.3391 39.0471 45.1217 39.0471 46.0863V62.3123C39.0471 63.4717 37.94 64.3083 36.8257 63.9946V63.9982Z" fill="#C00000"/>
<path d="M0.273438 18.041V38.1256C0.273438 41.0665 1.78984 43.7982 4.28532 45.3542L19.471 54.8169C22.2279 56.5352 25.7223 56.5352 28.4792 54.8169L43.6648 45.3542C46.1603 43.7982 47.6767 41.0665 47.6767 38.1256V18.041C47.6767 15.1002 46.1603 12.3685 43.6648 10.8124L28.4792 1.34979C25.7223 -0.368551 22.2279 -0.368551 19.471 1.34979L4.28532 10.8124C1.78984 12.3685 0.273438 15.1002 0.273438 18.041Z" fill="#FF3F00"/>
<path d="M21.0613 18.3927C22.7724 17.8338 24.6855 17.8356 26.3966 18.3927V13.207C26.3966 13.1818 26.6166 12.8031 26.6617 12.7617C26.7645 12.6661 27.0511 12.5417 27.1954 12.5255C27.9347 12.4353 30.1939 12.4353 30.9332 12.5255C31.384 12.5814 31.7031 12.9402 31.7356 13.3837V22.6282C32.7669 24.4692 32.9184 26.5445 33.2412 28.591C33.2826 28.6523 33.3565 28.6415 33.4197 28.6487C35.5996 28.921 38.4016 27.859 38.8974 31.1135C38.7983 32.9527 39.0561 34.9776 38.9047 36.7951C38.8362 37.6065 38.4052 38.4215 37.7146 38.865C36.7428 39.4889 35.6771 39.2815 34.5809 39.3176C34.2599 41.292 32.446 42.7813 30.4608 42.8733C26.0486 42.6587 21.3822 43.1474 17.0007 42.8733C14.9921 42.7471 13.225 41.3244 12.8806 39.3176C11.9611 39.2779 11.0451 39.4438 10.176 39.0886C9.20956 38.6937 8.63076 37.7669 8.55504 36.7392C8.44324 35.2372 8.44324 32.7237 8.55504 31.2235C8.66683 29.7234 9.69098 28.7533 11.1335 28.6451C12.0891 28.573 13.1331 28.7028 14.0995 28.6469L14.2384 28.5477C14.5359 26.5139 14.7054 24.4511 15.7259 22.6264V13.3819C15.7566 12.9402 16.0775 12.5796 16.5283 12.5237C17.2676 12.4335 19.5268 12.4335 20.2661 12.5237C20.4104 12.5417 20.6971 12.6643 20.7998 12.7599C20.8467 12.8031 21.0649 13.18 21.0649 13.2052V18.3909L21.0613 18.3927ZM19.2834 14.3033H17.5056V20.4086C18.0537 19.938 18.6199 19.4656 19.2834 19.1645V14.3051V14.3033ZM29.9523 14.3033H28.1745V19.1627C28.838 19.4638 29.4042 19.938 29.9523 20.4068V14.3015V14.3033ZM30.01 23.3116C30.0605 23.2665 29.4871 22.4803 29.415 22.3956C26.1875 18.5496 20.0137 18.9733 17.4425 23.2827C19.6711 23.4035 21.2416 21.6599 23.3999 21.5355C25.7511 21.4003 27.053 22.9347 29.2149 23.2485C29.4727 23.2863 29.7504 23.2485 30.0082 23.3134L30.01 23.3116ZM22.8391 23.4306C22.0458 23.5874 21.3804 24.1031 20.6448 24.4078C19.379 24.9325 17.9906 25.1363 16.6221 25.0984C16.4742 25.5708 16.4093 26.0649 16.3282 26.5535C15.67 30.45 15.1778 34.3771 14.5377 38.2754C14.4962 39.1824 14.938 40.1542 15.7259 40.6194C15.8071 38.9858 15.5889 37.2332 15.7945 35.6195C16.2524 32.0043 19.2131 29.0815 22.8391 28.7064V23.4324V23.4306ZM24.617 23.4306V28.7046C28.243 29.0797 31.2037 32.0025 31.6616 35.6177C31.8672 37.2314 31.649 38.984 31.7302 40.6176C32.5181 40.1524 32.9581 39.1806 32.9184 38.2736C32.2783 34.3753 31.7861 30.4464 31.1279 26.5517C31.045 26.0649 30.9801 25.5708 30.834 25.0966C29.4655 25.1363 28.0807 24.9289 26.8113 24.406C26.0721 24.1013 25.4103 23.5892 24.617 23.4288V23.4306ZM13.9481 30.4248H11.0145C10.8396 30.4248 10.3329 30.9314 10.3329 31.1063V32.2026H13.6524L13.9481 30.4248ZM29.9523 41.0937C29.8081 38.472 30.4662 35.7421 29.0291 33.3945C26.7031 29.5917 21.2055 29.4222 18.6433 33.0753C16.9412 35.5005 17.648 38.3079 17.5056 41.0955H29.9523V41.0937ZM36.4416 30.4248H33.508L33.8037 32.2026H37.1232V31.1063C37.1232 30.9098 36.64 30.4662 36.4416 30.4248ZM13.3549 33.9805H10.3311V36.8546C10.3311 37.0728 10.7999 37.4748 11.0253 37.5235C11.1984 37.5596 12.7508 37.5632 12.8229 37.5109L13.3531 33.9805H13.3549ZM37.1232 33.9805H34.0994L34.6295 37.5109C34.7017 37.5632 36.2541 37.5596 36.4272 37.5235C36.6526 37.4767 37.1214 37.0746 37.1214 36.8546V33.9805H37.1232Z" fill="white"/>
<path d="M22.8391 37.5361V38.6324C22.8391 38.6576 22.6191 39.0363 22.5741 39.0778C22.0602 39.5556 21.1731 39.2653 21.0649 38.5693C21.0378 38.3944 21.0973 37.5722 21.0613 37.5361C20.423 37.5361 19.5178 37.684 19.3105 36.887C19.1843 36.4002 19.4655 35.9332 19.9325 35.7871L27.428 35.7637C28.4197 36.0017 28.4197 37.2963 27.428 37.5343L22.8373 37.5379L22.8391 37.5361Z" fill="white"/>
</svg>
