<svg width="92" height="56" viewBox="0 0 92 56" fill="none" xmlns="http://www.w3.org/2000/svg">
<path d="M90.8691 33.7138L90.6057 31.6521C87.7555 11.038 80.4748 0.116965 69.4666 0.0297304C65.5377 -0.208486 61.6541 0.990983 58.5455 3.4067H33.459C30.3454 0.997693 26.4669 -0.201775 22.538 0.0297304C11.528 0.116965 4.24734 11.038 1.39714 31.6521L1.13376 33.7138C0.169148 40.1608 -1.19137 49.0201 2.75597 53.4505C4.29599 55.1533 6.51375 56.086 8.80868 55.9938H9.07206C18.6779 55.774 23.6334 47.3542 27.5808 40.5986C28.3256 39.327 29.0721 38.0554 29.817 36.9146C30.4176 35.8628 30.0502 34.5241 28.9983 33.9235C28.0237 33.3682 26.7873 33.6367 26.133 34.5459C25.3429 35.7303 24.598 37.0455 23.8079 38.406C20.0367 44.8093 16.133 51.4324 8.98314 51.6069C7.89272 51.7344 6.80565 51.3452 6.04403 50.555C3.4572 47.6159 4.72881 39.327 5.47365 34.3714L5.78065 32.2661C7.49345 19.5903 11.835 4.50383 22.538 4.41492C25.353 4.26058 28.1394 5.03059 30.4763 6.60752L30.6524 14.3713C30.6893 15.5591 31.6573 16.5069 32.845 16.5203H59.1612C60.3724 16.5203 61.3538 15.5389 61.3538 14.3277V6.74004C63.689 5.01046 66.5711 4.18341 69.4682 4.41492C80.1695 4.50215 84.5111 19.5903 86.2222 32.2661L86.5292 34.3714C87.274 39.327 88.5473 47.6176 85.9588 50.555C85.2173 51.3754 84.1135 51.7696 83.0197 51.6069C75.8715 51.4307 71.9678 44.8093 68.1949 38.406C67.4048 37.0472 66.66 35.7303 65.8698 34.5459C65.1619 33.5628 63.7913 33.3397 62.8082 34.0477C61.899 34.7036 61.6289 35.94 62.1859 36.913C62.9307 38.0537 63.6772 39.3253 64.4221 40.5969C68.3694 47.3509 73.325 55.7723 82.9308 55.9921H83.1942C85.4891 56.0827 87.7069 55.1516 89.2469 53.4489C93.1942 49.0184 91.8354 40.1591 90.8691 33.7122V33.7138ZM56.9669 12.1351H34.994L34.9068 7.79356H56.9686V12.1351H56.9669Z" fill="black"/>
<path d="M19.6872 25.2924C20.8984 25.2924 21.8798 24.311 21.8798 23.0998V20.9072H24.0724C25.2836 20.9072 26.2649 19.9258 26.2649 18.7146C26.2649 17.5034 25.2836 16.522 24.0724 16.522H21.8798V14.3294C21.8798 13.1182 20.8984 12.1368 19.6872 12.1368C18.4759 12.1368 17.4946 13.1182 17.4946 14.3294V16.522H15.302C14.0908 16.522 13.1094 17.5034 13.1094 18.7146C13.1094 19.9258 14.0908 20.9072 15.302 20.9072H17.4946V23.0998C17.4946 24.311 18.4759 25.2924 19.6872 25.2924Z" fill="black"/>
<path d="M76.7028 20.9055C76.9913 20.9156 77.2765 20.8552 77.5365 20.7294C77.8083 20.6338 78.0515 20.4677 78.2378 20.2462C78.4609 20.06 78.6286 19.8168 78.7209 19.54C78.8467 19.2816 78.9071 18.9981 78.897 18.7112C78.9038 18.1291 78.6655 17.5705 78.2394 17.1712C77.6103 16.5639 76.686 16.3777 75.8707 16.6931C75.5973 16.7854 75.3557 16.9515 75.1695 17.1712C74.7434 17.5688 74.5051 18.1275 74.5119 18.7112C74.5421 19.909 75.5067 20.8736 76.7045 20.9038L76.7028 20.9055Z" fill="black"/>
<path d="M66.3953 15.8627C66.5832 16.0825 66.8248 16.2486 67.0965 16.3459C67.3565 16.4717 67.6417 16.5304 67.9303 16.522C68.5124 16.5304 69.0694 16.2905 69.4653 15.8644C69.6884 15.6782 69.8561 15.4349 69.9484 15.1581C70.0692 14.8981 70.1296 14.6146 70.1246 14.3294C70.1313 13.7473 69.893 13.1887 69.4669 12.7894C68.6147 11.954 67.2492 11.954 66.397 12.7894C65.9709 13.187 65.7327 13.7456 65.7394 14.3294C65.7293 14.6163 65.7897 14.8998 65.9155 15.1581C66.0061 15.4349 66.1739 15.6782 66.3987 15.8644L66.3953 15.8627Z" fill="black"/>
<path d="M66.3953 26.2671C66.5832 26.4868 66.8248 26.6529 67.0965 26.7502C67.3565 26.876 67.6417 26.9347 67.9303 26.9263C68.5124 26.9347 69.0694 26.6948 69.4653 26.2687C69.6884 26.0825 69.8561 25.8393 69.9484 25.5625C70.0692 25.3024 70.1296 25.0189 70.1246 24.7337C70.1313 24.1516 69.893 23.593 69.4669 23.1937C68.6147 22.3583 67.2492 22.3583 66.397 23.1937C65.9709 23.5913 65.7327 24.15 65.7394 24.7337C65.7293 25.0206 65.7897 25.3041 65.9155 25.5625C66.0061 25.8393 66.1739 26.0825 66.3987 26.2687L66.3953 26.2671Z" fill="black"/>
<path d="M38.0131 25.2924C34.3794 25.2924 31.4336 28.2382 31.4336 31.8719C31.4336 35.5055 34.3794 38.4513 38.0131 38.4513C41.6467 38.4513 44.5925 35.5055 44.5925 31.8719C44.5925 28.2382 41.6467 25.2924 38.0131 25.2924ZM38.0131 34.0644C36.8018 34.0644 35.8205 33.0831 35.8205 31.8719C35.8205 30.6606 36.8018 29.6793 38.0131 29.6793C39.2243 29.6793 40.2057 30.6606 40.2057 31.8719C40.2057 33.0831 39.2243 34.0644 38.0131 34.0644Z" fill="#F90A88"/>
<path d="M54.7748 25.2924C51.1411 25.2924 48.1953 28.2382 48.1953 31.8719C48.1953 35.5055 51.1411 38.4513 54.7748 38.4513C58.4084 38.4513 61.3542 35.5055 61.3542 31.8719C61.3542 28.2382 58.4084 25.2924 54.7748 25.2924ZM54.7748 34.0644C53.5636 34.0644 52.5822 33.0831 52.5822 31.8719C52.5822 30.6606 53.5636 29.6793 54.7748 29.6793C55.986 29.6793 56.9674 30.6606 56.9674 31.8719C56.9674 33.0831 55.986 34.0644 54.7748 34.0644Z" fill="#F90A88"/>
</svg>
