<svg width="57" height="57" viewBox="0 0 57 57" fill="none" xmlns="http://www.w3.org/2000/svg">
<rect x="0.333374" y="0.579041" width="56" height="56" rx="28" fill="#FFE9F8"/>
<path d="M38.8334 29.279C38.8334 27.347 40.4014 25.779 42.3334 25.779V24.379C42.3334 18.779 40.9334 17.379 35.3334 17.379H21.3334C15.7334 17.379 14.3334 18.779 14.3334 24.379V25.079C16.2654 25.079 17.8334 26.647 17.8334 28.579C17.8334 30.511 16.2654 32.079 14.3334 32.079V32.779C14.3334 38.379 15.7334 39.779 21.3334 39.779H35.3334C40.9334 39.779 42.3334 38.379 42.3334 32.779C40.4014 32.779 38.8334 31.211 38.8334 29.279Z" stroke="#D60085" stroke-width="2.1" stroke-linecap="round" stroke-linejoin="round"/>
<path d="M24.1334 32.4291L32.5334 24.0291" stroke="#D60085" stroke-width="2.1" stroke-linecap="round" stroke-linejoin="round"/>
<path d="M32.5257 32.4291H32.5383" stroke="#D60085" stroke-width="2.8" stroke-linecap="round" stroke-linejoin="round"/>
<path d="M24.1257 24.7291H24.1383" stroke="#D60085" stroke-width="2.8" stroke-linecap="round" stroke-linejoin="round"/>
</svg>
