<svg width="40" height="41" viewBox="0 0 40 41" fill="none" xmlns="http://www.w3.org/2000/svg">
<rect x="0.75" y="1.3291" width="38.5" height="38.5" rx="19.25" stroke="white" stroke-width="1.5"/>
<path d="M20 29.5791C24.9706 29.5791 29 25.5497 29 20.5791C29 15.6085 24.9706 11.5791 20 11.5791C15.0294 11.5791 11 15.6085 11 20.5791C11 25.5497 15.0294 29.5791 20 29.5791ZM20 29.5791V19.0791C19.9988 18.7833 20.0561 18.4901 20.1687 18.2166C20.2814 17.9431 20.4471 17.6945 20.6562 17.4853C20.8654 17.2762 21.114 17.1105 21.3875 16.9978C21.661 16.8852 21.9542 16.8279 22.25 16.8291H23.75M17 22.0791H23" stroke="white" stroke-width="1.5" stroke-linecap="round" stroke-linejoin="round"/>
</svg>
