<svg width="133" height="50" viewBox="0 0 133 50" fill="none" xmlns="http://www.w3.org/2000/svg">
<path d="M58.1008 31.9469C57.8042 31.9469 57.4636 31.9186 57.0819 31.8634C56.6986 31.8081 56.3311 31.6804 55.9794 31.4832C55.6277 31.2861 55.3359 30.9864 55.1087 30.5842C54.88 30.1836 54.7665 29.63 54.7665 28.925V21.2691C54.7665 20.6634 54.8595 20.1571 55.0441 19.7486C55.2286 19.3401 55.4762 19.0199 55.7854 18.7849C56.0945 18.5499 56.4336 18.3843 56.8043 18.2849C57.1749 18.1856 57.5393 18.1367 57.8973 18.1367C58.8247 18.1367 59.6433 18.1493 60.3531 18.1729C61.0628 18.1982 61.7032 18.225 62.271 18.2565C62.8388 18.2881 63.3577 18.3275 63.8277 18.3764V20.6744H58.7111C58.3279 20.6744 58.0314 20.7675 57.8216 20.952C57.6118 21.1381 57.5061 21.422 57.5061 21.8053V23.7895L62.9366 23.9377V26.1064L57.5061 26.2547V28.1458C57.5061 28.4676 57.5582 28.7168 57.6639 28.8966C57.768 29.0764 57.9115 29.1994 58.0897 29.2672C58.2695 29.335 58.4572 29.3697 58.6544 29.3697H63.8261V31.6678C63.282 31.7293 62.6795 31.7798 62.0186 31.816C61.3578 31.8539 60.6906 31.8839 60.0171 31.9091C59.3436 31.9343 58.7033 31.9469 58.0992 31.9469H58.1008Z" fill="black"/>
<path d="M69.2582 31.8539L64.957 18.1367H67.7929L70.9994 28.8887L74.206 18.1367H77.0245L72.7233 31.8539H69.2566H69.2582Z" fill="black"/>
<path d="M81.3997 31.9469C81.1032 31.9469 80.7625 31.9186 80.3808 31.8634C79.9975 31.8081 79.63 31.6804 79.2783 31.4832C78.9266 31.2861 78.6348 30.9864 78.4077 30.5842C78.179 30.1836 78.0654 29.63 78.0654 28.925V21.2691C78.0654 20.6634 78.1585 20.1571 78.343 19.7486C78.5291 19.3401 78.7752 19.0199 79.0843 18.7849C79.3935 18.5499 79.7326 18.3843 80.1032 18.2849C80.4739 18.1856 80.8382 18.1367 81.1962 18.1367C82.1237 18.1367 82.9422 18.1493 83.652 18.1729C84.3618 18.1982 85.0021 18.225 85.5699 18.2565C86.1377 18.2881 86.6566 18.3275 87.1267 18.3764V20.6744H82.0101C81.6268 20.6744 81.3303 20.7675 81.1205 20.952C80.9108 21.1381 80.8051 21.422 80.8051 21.8053V23.7895L86.2371 23.9377V26.1064L80.8051 26.2547V28.1458C80.8051 28.4676 80.8571 28.7168 80.9628 28.8966C81.0685 29.0764 81.2104 29.1994 81.3887 29.2672C81.5669 29.335 81.7562 29.3697 81.9533 29.3697H87.1251V31.6678C86.5809 31.7293 85.9784 31.7798 85.3176 31.816C84.6567 31.8539 83.9895 31.8839 83.316 31.9091C82.6426 31.9343 82.0022 31.9469 81.3981 31.9469H81.3997Z" fill="black"/>
<path d="M89.1298 31.8539V18.1367H94.8015C95.3457 18.1367 95.852 18.2013 96.322 18.3307C96.792 18.46 97.2052 18.6855 97.5648 19.0073C97.9229 19.329 98.2036 19.7738 98.4086 20.3416C98.6121 20.9094 98.7146 21.6397 98.7146 22.5293C98.7146 23.1602 98.6531 23.6964 98.5301 24.1412C98.4071 24.586 98.243 24.9503 98.038 25.2342C97.8345 25.5181 97.6027 25.7468 97.3424 25.9203C97.0838 26.0938 96.8172 26.2358 96.5459 26.3462L99.1042 31.8523H96.3046L94.0981 26.7736C93.9498 26.7736 93.7795 26.7705 93.5886 26.7641C93.3962 26.7578 93.2022 26.7547 93.005 26.7547H92.412C92.2148 26.7547 92.035 26.7484 91.8742 26.7358V31.8523H89.1313L89.1298 31.8539ZM91.8726 24.5686H94.3189C94.5665 24.5686 94.7889 24.5387 94.986 24.4756C95.1832 24.4141 95.3567 24.3052 95.505 24.1507C95.6532 23.9961 95.7668 23.7895 95.8472 23.5292C95.9277 23.2706 95.9671 22.9362 95.9671 22.5277C95.9671 22.1444 95.9261 21.8258 95.8472 21.5735C95.7668 21.3211 95.6532 21.1224 95.505 20.9804C95.3567 20.8385 95.1832 20.7391 94.986 20.6839C94.7889 20.6287 94.5665 20.6003 94.3189 20.6003H91.8726V24.5671V24.5686Z" fill="black"/>
<path d="M104.088 31.9469C103.792 31.9469 103.451 31.9186 103.069 31.8634C102.686 31.8081 102.319 31.6804 101.967 31.4832C101.615 31.2861 101.323 30.9864 101.096 30.5842C100.867 30.1836 100.754 29.63 100.754 28.925V21.2691C100.754 20.6634 100.847 20.1571 101.032 19.7486C101.218 19.3401 101.464 19.0199 101.773 18.7849C102.082 18.5499 102.421 18.3843 102.792 18.2849C103.162 18.1856 103.527 18.1367 103.885 18.1367C104.812 18.1367 105.631 18.1493 106.34 18.1729C107.05 18.1982 107.691 18.225 108.258 18.2565C108.826 18.2881 109.345 18.3275 109.815 18.3764V20.6744H104.699C104.315 20.6744 104.019 20.7675 103.809 20.952C103.599 21.1381 103.494 21.422 103.494 21.8053V23.7895L108.926 23.9377V26.1064L103.494 26.2547V28.1458C103.494 28.4676 103.546 28.7168 103.651 28.8966C103.757 29.0764 103.899 29.1994 104.077 29.2672C104.255 29.335 104.445 29.3697 104.642 29.3697H109.814V31.6678C109.269 31.7293 108.667 31.7798 108.006 31.816C107.345 31.8539 106.678 31.8839 106.005 31.9091C105.331 31.9343 104.691 31.9469 104.087 31.9469H104.088Z" fill="black"/>
<path d="M115.952 31.9659C115.594 31.9659 115.227 31.9564 114.85 31.9375C114.473 31.9186 114.089 31.8886 113.7 31.8444C113.31 31.8018 112.943 31.7514 112.597 31.6962C112.252 31.641 111.937 31.5763 111.653 31.5022V29.3335C112.023 29.3713 112.443 29.4013 112.913 29.4265C113.383 29.4518 113.87 29.4707 114.377 29.4817C114.883 29.4943 115.365 29.5006 115.823 29.5006C116.28 29.5006 116.697 29.4612 117.037 29.3808C117.376 29.3003 117.64 29.1584 117.824 28.9549C118.011 28.7515 118.102 28.4707 118.102 28.1111V27.6111C118.102 27.2026 117.982 26.8919 117.741 26.6742C117.499 26.4582 117.157 26.3493 116.712 26.3493H115.545C114.235 26.3493 113.231 26.0623 112.533 25.4882C111.834 24.914 111.485 23.9346 111.485 22.5498V21.8826C111.485 20.5482 111.869 19.5719 112.635 18.9537C113.402 18.3354 114.495 18.0262 115.916 18.0262C116.422 18.0262 116.925 18.0515 117.427 18.1004C117.927 18.1493 118.41 18.2092 118.873 18.277C119.337 18.3448 119.734 18.4158 120.069 18.49V20.6587C119.501 20.6224 118.867 20.5845 118.168 20.5467C117.47 20.5104 116.824 20.4915 116.231 20.4915C115.812 20.4915 115.436 20.5325 115.11 20.6113C114.782 20.6918 114.533 20.8432 114.359 21.0656C114.186 21.288 114.099 21.6034 114.099 22.0103V22.381C114.099 22.8636 114.235 23.209 114.506 23.4188C114.777 23.6286 115.179 23.7343 115.711 23.7343H117.064C117.892 23.7343 118.575 23.8857 119.113 24.1885C119.651 24.4913 120.051 24.9093 120.318 25.4393C120.583 25.9708 120.717 26.5764 120.717 27.2562V28.0354C120.717 29.1111 120.517 29.9328 120.115 30.5006C119.712 31.0684 119.157 31.4548 118.446 31.6583C117.734 31.8618 116.903 31.9643 115.952 31.9643V31.9659Z" fill="black"/>
<path d="M125.61 31.8539V20.6019H121.846V18.1367H132.135V20.6019H128.352V31.8539H125.61Z" fill="black"/>
<path d="M54.8359 16.6462V9.79779H57.563C57.7617 9.79779 57.9652 9.8246 58.1718 9.87665C58.38 9.9287 58.574 10.0312 58.7538 10.1842C58.9336 10.3356 59.0787 10.5564 59.1859 10.8451C59.2948 11.1337 59.3484 11.5138 59.3484 11.9854C59.3484 12.457 59.2916 12.8592 59.1765 13.1526C59.0613 13.4475 58.9131 13.6731 58.7301 13.8324C58.5472 13.9901 58.35 14.0973 58.1387 14.1541C57.9273 14.2093 57.7223 14.2377 57.5251 14.2377C57.4321 14.2377 57.2948 14.2346 57.115 14.2282C56.9352 14.2219 56.7444 14.2141 56.5425 14.2046C56.3406 14.1951 56.1529 14.1841 55.9794 14.1715C55.8059 14.1589 55.6719 14.1494 55.5788 14.1431V16.6462H54.8344H54.8359ZM55.5804 13.5753H57.4321C57.6497 13.5753 57.8469 13.5295 58.0283 13.4365C58.2081 13.3434 58.35 13.1825 58.451 12.9523C58.5535 12.722 58.6039 12.4034 58.6039 11.9933C58.6039 11.5832 58.5535 11.2788 58.451 11.058C58.3484 10.8372 58.2144 10.6842 58.0456 10.5975C57.8784 10.5107 57.6955 10.4665 57.4967 10.4665H55.5804V13.5753Z" fill="black"/>
<path d="M61.8325 16.6462C61.5659 16.6462 61.3278 16.6036 61.1212 16.52C60.913 16.4364 60.7505 16.2929 60.6322 16.0925C60.5139 15.8907 60.4556 15.6162 60.4556 15.2692V9.79779H61.2V15.1667C61.2 15.3907 61.2379 15.5594 61.312 15.6746C61.3861 15.7897 61.4855 15.867 61.6101 15.908C61.7347 15.949 61.8609 15.9679 61.9918 15.9679H64.4491V16.6477H61.8341L61.8325 16.6462Z" fill="black"/>
<path d="M65.006 16.6462L67.3513 9.79779H68.3008L70.6462 16.6462H69.8828L69.1935 14.692H66.4397L65.7694 16.6462H65.006ZM66.6258 14.0216H69.0074L67.8261 10.4476L66.6258 14.0216Z" fill="black"/>
<path d="M71.8085 16.6462V9.79779H72.4125L75.9866 15.3717V9.79779H76.7216V16.6462H76.1159L72.5419 11.0722V16.6462H71.8069H71.8085Z" fill="black"/>
<path d="M94.1294 39.4751V35.3286H95.6704C96.041 35.3286 96.3186 35.4185 96.5 35.5983C96.6814 35.7781 96.7728 36.0446 96.7728 36.3979C96.7728 36.5698 96.7476 36.7197 96.6971 36.8459C96.6467 36.972 96.5773 37.0746 96.4889 37.155C96.4006 37.2354 96.3028 37.2906 96.194 37.3206C96.2729 37.3427 96.3549 37.3774 96.4385 37.4215C96.5236 37.4673 96.6009 37.5288 96.675 37.6108C96.7476 37.6913 96.8075 37.7906 96.8517 37.9089C96.8959 38.0272 96.9195 38.166 96.9195 38.3285C96.9195 38.6171 96.8722 38.8458 96.776 39.0114C96.6798 39.177 96.5441 39.2969 96.3675 39.3679C96.1908 39.4388 95.9795 39.4751 95.7319 39.4751H94.1278H94.1294ZM94.6972 37.1298H95.6877C95.8486 37.1298 95.9795 37.0714 96.0788 36.9531C96.1782 36.8348 96.2303 36.6802 96.2334 36.4894C96.2413 36.2465 96.1908 36.0762 96.082 35.9799C95.9732 35.8837 95.8344 35.8364 95.6656 35.8364H94.6972V37.1298ZM94.6972 38.9688H95.7161C95.8517 38.9688 95.9669 38.9467 96.0647 38.901C96.1624 38.8553 96.2397 38.7811 96.2949 38.6754C96.3517 38.5698 96.3801 38.4231 96.3801 38.2307C96.3801 38.0919 96.3501 37.9736 96.2902 37.8742C96.2303 37.7748 96.1498 37.6991 96.0505 37.6455C95.9511 37.5935 95.8391 37.5666 95.7161 37.5666H94.6972V38.9672V38.9688Z" fill="black"/>
<path d="M98.3988 40.8079L98.7648 39.4751C98.6449 39.472 98.5297 39.4467 98.4209 39.3994C98.3121 39.3521 98.2159 39.2748 98.1307 39.1691C98.0455 39.0635 97.9777 38.9184 97.9257 38.7386L97.2506 36.4658H97.8421L98.4493 38.6203C98.4824 38.7212 98.5219 38.7985 98.5644 38.8505C98.607 38.9026 98.6512 38.9389 98.6938 38.9609C98.7364 38.9815 98.7758 38.9941 98.8089 38.9972C98.842 39.0004 98.8625 39.0035 98.8704 39.0035L99.5739 36.4658H100.153L99.1181 40.2511L98.8483 40.8079H98.3988Z" fill="black"/>
<path d="M103.841 37.2307C103.841 38.0872 103.653 38.2244 103.205 38.2244C102.938 38.2244 102.711 38.1723 102.449 38.1124L102.432 38.1092C102.388 38.0998 102.358 38.0604 102.358 38.0162V36.6361C102.358 36.6046 102.374 36.5762 102.399 36.5588C102.721 36.3364 102.981 36.1976 103.284 36.1976C103.643 36.1976 103.839 36.3617 103.839 37.2307M103.58 35.5052C103.183 35.5052 102.722 35.6677 102.405 35.9169C102.377 35.939 102.341 35.9453 102.308 35.9311C102.274 35.9185 102.254 35.8901 102.249 35.8554L102.23 35.7055C102.222 35.6393 102.164 35.5888 102.096 35.5888H101.653C101.579 35.5888 101.519 35.6488 101.519 35.7213V39.972C101.519 40.0461 101.579 40.1045 101.653 40.1045H102.222C102.296 40.1045 102.356 40.0445 102.356 39.972V39.2433C102.361 39.0982 102.36 38.9483 102.353 38.7859C102.353 38.7512 102.369 38.7196 102.397 38.7023C102.426 38.6834 102.462 38.6834 102.492 38.6976C102.763 38.8364 103.084 38.9073 103.44 38.9073C104.336 38.9073 104.702 38.4231 104.702 37.2339C104.702 36.0446 104.334 35.5021 103.579 35.5021" fill="black"/>
<path d="M108.192 35.5904H107.623C107.549 35.5904 107.489 35.6503 107.489 35.7229V37.8111C107.489 37.8458 107.47 37.8774 107.44 37.8931C107.086 38.0903 106.831 38.2039 106.563 38.2039C106.418 38.2039 106.328 38.1786 106.271 38.1218C106.208 38.0588 106.183 37.9515 106.186 37.7717V35.7213C106.186 35.6472 106.126 35.5888 106.052 35.5888H105.476C105.402 35.5888 105.342 35.6487 105.342 35.7213V38.0067C105.342 38.6013 105.659 38.9152 106.26 38.9152C106.672 38.9152 107.056 38.7843 107.473 38.5035C107.5 38.4846 107.534 38.4815 107.566 38.4957C107.596 38.5099 107.618 38.5367 107.623 38.5698L107.643 38.7149C107.653 38.7811 107.709 38.83 107.776 38.83H108.194C108.268 38.83 108.328 38.7701 108.328 38.6975V35.7229C108.328 35.6487 108.268 35.5904 108.194 35.5904" fill="black"/>
<path d="M111.268 35.4989C110.867 35.4989 110.457 35.6487 110.014 35.9563C109.985 35.9752 109.951 35.9784 109.919 35.9642C109.888 35.95 109.867 35.9216 109.864 35.8885L109.843 35.7087C109.836 35.6408 109.779 35.5904 109.709 35.5904H109.254C109.179 35.5904 109.12 35.6503 109.12 35.7229V38.6975C109.12 38.7701 109.179 38.83 109.254 38.83H109.829C109.866 38.83 109.899 38.8158 109.924 38.7906C109.949 38.7653 109.963 38.7322 109.963 38.6959L109.957 36.6487C109.957 36.614 109.976 36.5824 110.007 36.5651C110.394 36.3553 110.692 36.2071 111.009 36.2071C111.261 36.2071 111.334 36.3048 111.334 36.6455V38.6959C111.334 38.7685 111.394 38.8284 111.468 38.8284H112.044C112.118 38.8284 112.178 38.7685 112.178 38.6959V36.4042C112.178 35.8191 111.854 35.4957 111.266 35.4957" fill="black"/>
<path d="M114.888 35.5904H114.167C114.113 35.5904 114.071 35.5478 114.071 35.4958V34.8018C114.071 34.7276 114.011 34.6693 113.936 34.6693H113.367C113.293 34.6693 113.233 34.7292 113.233 34.8018V35.5021C113.233 35.5525 113.194 35.5935 113.143 35.5967L112.779 35.6172C112.708 35.6219 112.653 35.6787 112.653 35.7497V36.0699C112.653 36.144 112.713 36.2024 112.787 36.2024H113.138C113.19 36.2024 113.235 36.2449 113.235 36.297L113.241 37.9484C113.241 38.554 113.569 38.9026 114.138 38.9026C114.324 38.9026 114.649 38.871 114.875 38.819C114.943 38.8032 114.987 38.7401 114.976 38.6707L114.919 38.2796C114.91 38.2149 114.853 38.166 114.787 38.166H114.444C114.164 38.166 114.074 38.0808 114.074 37.8127V36.2986C114.074 36.2465 114.116 36.2039 114.17 36.2039H114.891C114.965 36.2039 115.025 36.144 115.025 36.0714V35.7245C115.025 35.6503 114.965 35.592 114.891 35.592" fill="black"/>
<path d="M121.356 35.4989H121.326C120.952 35.4989 120.539 35.655 120.132 35.9484C120.105 35.9673 120.07 35.9721 120.039 35.9594C120.007 35.9468 119.985 35.9184 119.98 35.8853L119.952 35.7023C119.943 35.6361 119.886 35.5888 119.82 35.5888H119.406C119.332 35.5888 119.272 35.6487 119.272 35.7213V38.6959C119.272 38.7685 119.332 38.8284 119.406 38.8284H119.982C120.056 38.8284 120.116 38.7685 120.116 38.6959V36.6203C120.116 36.5809 120.141 36.5462 120.178 36.532C120.567 36.3853 120.865 36.2796 121.166 36.2796H121.294C121.362 36.2796 121.42 36.2291 121.428 36.1613L121.488 35.644C121.493 35.6061 121.48 35.5683 121.455 35.5399C121.43 35.5115 121.394 35.4957 121.354 35.4957" fill="black"/>
<path d="M123.706 36.9689H122.711C122.684 36.9689 122.659 36.9578 122.64 36.9389C122.621 36.9184 122.611 36.8932 122.614 36.8664C122.655 36.3222 122.823 36.1645 123.354 36.1645C123.824 36.1645 123.976 36.2749 123.976 36.6156C123.976 36.7796 123.944 36.9689 123.704 36.9689M122.741 37.5619H123.928C124.515 37.5619 124.813 37.248 124.813 36.6282C124.813 35.8569 124.338 35.4973 123.319 35.4973C122.742 35.4973 122.357 35.6156 122.111 35.8711C121.854 36.1377 121.734 36.5604 121.734 37.2039C121.734 38.431 122.193 38.9089 123.373 38.9089C123.559 38.9089 124.199 38.8963 124.632 38.7275C124.688 38.7054 124.723 38.6471 124.714 38.5855L124.669 38.2717C124.66 38.2007 124.594 38.1502 124.523 38.1581C124.144 38.1991 123.742 38.2244 123.472 38.2244C122.983 38.2244 122.734 38.1423 122.646 37.6755C122.641 37.6471 122.647 37.6187 122.666 37.5982C122.685 37.5761 122.712 37.5635 122.741 37.5635" fill="black"/>
<path d="M127.586 36.3853V37.8222C127.586 37.8537 127.57 37.8837 127.542 37.901C127.226 38.1077 127.057 38.1976 126.751 38.1976C126.352 38.1976 126.163 38.0461 126.163 37.1834C126.163 36.3206 126.329 36.1818 126.799 36.1818C127.04 36.1818 127.237 36.2276 127.466 36.2812L127.512 36.2923C127.556 36.3017 127.586 36.3411 127.586 36.3853ZM128.296 34.2166H127.72C127.646 34.2166 127.586 34.2765 127.586 34.3491V35.1566C127.586 35.3317 127.589 35.4658 127.598 35.592C127.6 35.6267 127.586 35.6582 127.556 35.6771C127.527 35.6961 127.493 35.6992 127.461 35.6834C127.198 35.5588 126.895 35.4957 126.561 35.4957C125.665 35.4957 125.299 35.9863 125.299 37.1881C125.299 38.39 125.666 38.9073 126.455 38.9073C126.952 38.9073 127.335 38.6944 127.57 38.5146C127.597 38.4941 127.632 38.4893 127.663 38.502C127.695 38.5146 127.717 38.543 127.723 38.5761L127.744 38.7149C127.753 38.7811 127.81 38.8284 127.876 38.8284H128.296C128.37 38.8284 128.43 38.7685 128.43 38.696V34.3475C128.43 34.2734 128.37 34.215 128.296 34.215" fill="black"/>
<path d="M117.779 34.2166C117.779 34.6393 117.432 34.9831 117.004 34.9831C116.577 34.9831 116.23 34.6409 116.23 34.2166C116.23 33.7923 116.577 33.4501 117.004 33.4501C117.432 33.4501 117.779 33.7923 117.779 34.2166Z" fill="#FC0A8B"/>
<path d="M117.004 38.0382C116.528 38.0382 116.143 37.6566 116.143 37.1865C116.143 36.7165 116.528 36.3348 117.004 36.3348C117.48 36.3348 117.865 36.7165 117.865 37.1865C117.865 37.6566 117.48 38.0382 117.004 38.0382ZM117.01 35.4768C115.826 35.4768 115.386 35.9405 115.386 37.1897C115.386 38.4389 115.826 38.8947 117.01 38.8947C118.195 38.8947 118.622 38.4325 118.622 37.1897C118.622 35.9468 118.185 35.4768 117.01 35.4768Z" fill="black"/>
<path d="M35.7401 40.4278C34.737 40.0839 31.133 35.4942 31.133 35.4942L25.0591 27.0544C22.5718 22.8148 20.0451 27.0544 20.0451 27.0544L15.4789 34.081C12.2724 37.2875 11.6194 34.4611 11.6194 34.4611L10.2062 32.2324C7.92241 29.0259 6.23792 32.2324 6.23792 32.2324L1.96045 38.7512C5.00136 46.7635 11.7787 50 23.7642 50C34.6755 50 41.2352 47.273 44.5711 40.6297C41.6658 40.5681 36.7133 40.759 35.7417 40.4262L35.7401 40.4278Z" fill="black"/>
<path d="M13.14 6.62913C13.14 6.62913 15.8039 2.98729 18.5215 7.49819L29.2846 22.7737C29.2846 22.7737 32.5605 27.6253 36.2701 22.0813L39.0019 18.2076C39.0019 18.2076 40.7558 15.3134 43.486 18.3701L47.3282 23.6633C47.0064 6.44617 40.5098 0 23.7627 0C7.01555 0 0.299675 6.47456 0 23.7769L13.14 6.62913Z" fill="#FC0A8B"/>
</svg>
