<svg width="48" height="65" viewBox="0 0 48 65" fill="none" xmlns="http://www.w3.org/2000/svg">
<path d="M36.3899 64.0153L23.4978 60.3857C23.1733 60.2937 22.8271 60.2991 22.5061 60.3983L11.1322 63.9342C10.0071 64.284 8.86572 63.4437 8.86572 62.2645V46.1034C8.86572 45.1387 9.64826 44.3562 10.6129 44.3562H36.8641C37.8288 44.3562 38.6113 45.1387 38.6113 46.1034V62.3294C38.6113 63.4888 37.5042 64.3254 36.3899 64.0117V64.0153Z" fill="#AA0017"/>
<path d="M0 18.0581V38.1427C0 41.0836 1.5164 43.8153 4.01188 45.3713L19.1975 54.834C21.9544 56.5523 25.4488 56.5523 28.2058 54.834L43.3914 45.3713C45.8869 43.8153 47.4033 41.0836 47.4033 38.1427V18.0581C47.4033 15.1173 45.8869 12.3856 43.3914 10.8295L28.2076 1.36688C25.4506 -0.351461 21.9562 -0.351461 19.1993 1.36688L4.01188 10.8295C1.5164 12.3856 0 15.1173 0 18.0581Z" fill="#FF0088"/>
<path d="M37.2177 39.863C35.6166 37.2215 34.0208 34.5619 32.38 31.9384C31.6624 30.7898 30.9303 29.4321 30.1045 28.3629C29.7565 27.9121 29.468 27.6236 28.8261 27.6182C27.4161 27.6038 27.106 29.0985 26.3036 29.8468C26.2531 29.8937 26.2243 29.973 26.1323 29.9514C25.9899 29.9153 24.8124 27.7192 24.5438 27.4649C24.1147 27.007 23.5665 26.5544 22.9192 26.4985V21.1812H35.6635C36.0241 21.1812 36.3685 20.2472 35.9754 19.9713L32.1763 16.7961L36.0439 13.4838C36.2188 13.2133 36.1665 12.8004 35.9501 12.5732C35.9177 12.539 35.6148 12.3424 35.5931 12.3424H22.9192V10.8567C22.9192 10.1048 21.5597 9.78383 21.4046 10.7918L21.3685 26.4336C20.8673 26.6211 20.2939 26.8681 19.9116 27.2576C19.533 27.6435 18.2708 29.964 18.1176 30.0217C17.9968 30.0686 17.9932 29.7224 17.8183 29.7026C17.2467 28.8551 16.612 27.6128 15.4346 27.6308C14.4807 27.6453 14.1508 28.3755 13.7018 29.0607C11.0296 33.1429 8.63331 37.4216 6.00981 41.5363C5.90524 42.0357 6.14685 42.4811 6.65532 42.5875C9.88826 42.5983 13.123 42.5875 16.356 42.5911C23.4132 42.6001 30.4724 42.5821 37.5297 42.5947C39.3039 42.335 37.6775 40.6293 37.2141 39.8648L37.2177 39.863ZM22.9228 13.8588H33.2834C32.5351 14.6792 31.4839 15.2995 30.6905 16.0676C30.2253 16.5184 30.0288 16.8429 30.5517 17.3839L33.3519 19.7297H22.9228V13.8588ZM11.4227 41.0693H8.07255L15.4364 29.0571C15.5446 29.0607 15.6275 29.1238 15.7014 29.1959C16.1829 29.6719 16.6372 30.7358 17.1818 31.2388L17.2323 31.5381L11.4245 41.0693H11.4227ZM31.0728 41.0693C26.538 41.0639 21.9996 41.0765 17.4667 41.0693C16.2406 41.0675 14.4321 41.2189 13.2871 41.0693C13.1915 41.0566 13.1663 41.1071 13.1861 40.9683C15.6942 36.9997 18.0418 32.9067 20.5499 28.9597C20.6473 28.8064 20.6798 28.6261 20.824 28.4368C21.5669 27.4523 22.8723 27.6543 23.5485 28.6009C24.4392 29.8504 25.357 31.5201 26.172 32.8508C27.7371 35.4058 29.4734 38.105 30.9231 40.7032C30.9592 40.7682 31.1233 41.026 31.0746 41.0693H31.0728ZM32.8344 41.0693L27.2737 31.8843C27.1925 31.7365 26.9635 31.5003 27.0303 31.3344L28.6548 29.1526C28.7522 29.0715 28.9343 29.1797 29.001 29.259L36.2531 41.0693H32.8344Z" fill="white"/>
<path d="M19.5346 33.6422L17.0355 37.7028C16.738 38.5088 17.6576 39.0605 18.2634 38.516C18.7683 37.6685 19.3182 36.8445 19.8159 35.9953C19.897 35.8546 19.9962 35.7068 20.0647 35.5896C20.254 35.2614 20.6273 34.6898 20.7643 34.3887C21.1015 33.6494 20.0521 33.0166 19.5346 33.644V33.6422Z" fill="white"/>
<path d="M21.2441 31.2083C20.3786 31.4048 20.595 32.9699 21.7508 32.6129C22.463 32.3929 22.2809 30.9721 21.2441 31.2083Z" fill="white"/>
</svg>
