<svg width="25" height="33" viewBox="0 0 25 33" fill="none" xmlns="http://www.w3.org/2000/svg">
<path d="M18.5551 32.0477L12.109 30.2329C11.9467 30.187 11.7736 30.1897 11.6132 30.2392L5.92621 32.0072C5.36365 32.1821 4.79297 31.762 4.79297 31.1724V23.0918C4.79297 22.6095 5.18424 22.2182 5.66657 22.2182H18.7922C19.2745 22.2182 19.6658 22.6095 19.6658 23.0918V31.2048C19.6658 31.7845 19.1122 32.2028 18.5551 32.0459V32.0477Z" fill="#AA0017"/>
<path d="M0.359375 9.06902V19.1113C0.359375 20.5818 1.11757 21.9476 2.36531 22.7256L9.95813 27.4569C11.3366 28.3161 13.0838 28.3161 14.4623 27.4569L22.0551 22.7256C23.3028 21.9476 24.061 20.5818 24.061 19.1113V9.06902C24.061 7.5986 23.3028 6.23276 22.0551 5.45473L14.4623 0.72342C13.0838 -0.135753 11.3366 -0.135753 9.95813 0.72342L2.36531 5.45473C1.11757 6.23276 0.359375 7.5986 0.359375 9.06902Z" fill="#FF0088"/>
<path d="M18.9675 19.9714C18.1669 18.6506 17.3691 17.3208 16.5487 16.0091C16.1898 15.4348 15.8238 14.7559 15.4109 14.2213C15.2369 13.9959 15.0927 13.8517 14.7717 13.849C14.0667 13.8417 13.9116 14.5891 13.5104 14.9633C13.4852 14.9867 13.4708 15.0264 13.4248 15.0156C13.3536 14.9975 12.7649 13.8994 12.6305 13.7723C12.416 13.5433 12.1419 13.317 11.8182 13.2891V10.6304H18.1904C18.3707 10.6304 18.5429 10.1634 18.3463 10.0255L16.4468 8.43788L18.3806 6.78174C18.468 6.64651 18.4419 6.44006 18.3337 6.32646C18.3175 6.30933 18.166 6.21107 18.1552 6.21107H11.8182V5.46819C11.8182 5.09225 11.1385 4.93177 11.0609 5.43574L11.0429 13.2566C10.7923 13.3504 10.5056 13.4739 10.3145 13.6687C10.1251 13.8616 9.49406 15.0219 9.41743 15.0507C9.35703 15.0742 9.35522 14.9011 9.26777 14.8911C8.98198 14.4674 8.66464 13.8463 8.07593 13.8553C7.59901 13.8625 7.43403 14.2276 7.20954 14.5702C5.87345 16.6113 4.6753 18.7507 3.36355 20.808C3.31126 21.0577 3.43207 21.2804 3.6863 21.3336C5.30277 21.339 6.92015 21.3336 8.53662 21.3354C12.0653 21.3399 15.5948 21.3309 19.1235 21.3372C20.0106 21.2074 19.1974 20.3545 18.9657 19.9723L18.9675 19.9714ZM11.82 6.96927H17.0003C16.6262 7.37947 16.1006 7.6896 15.7039 8.07366C15.4713 8.29905 15.373 8.46132 15.6345 8.73179L17.0346 9.9047H11.82V6.96927ZM6.06999 20.5754H4.39492L8.07683 14.5693C8.13092 14.5711 8.17239 14.6027 8.20936 14.6387C8.45007 14.8767 8.67726 15.4086 8.94953 15.6602L8.97477 15.8098L6.07089 20.5754H6.06999ZM15.895 20.5745C13.6276 20.5718 11.3585 20.5781 9.09197 20.5745C8.47892 20.5736 7.57467 20.6493 7.00219 20.5745C6.95441 20.5682 6.94178 20.5934 6.9517 20.524C8.20575 18.5397 9.37956 16.4932 10.6336 14.5197C10.6823 14.4431 10.6985 14.3529 10.7706 14.2583C11.1421 13.766 11.7948 13.867 12.1329 14.3403C12.5782 14.9651 13.0371 15.7999 13.4446 16.4652C14.2272 17.7427 15.0954 19.0924 15.8202 20.3915C15.8382 20.4239 15.9203 20.5529 15.8959 20.5745H15.895ZM16.7758 20.5754L13.9955 15.9829C13.9549 15.909 13.8404 15.7909 13.8738 15.7079L14.6861 14.6171C14.7347 14.5765 14.8258 14.6306 14.8592 14.6703L18.4852 20.5754H16.7758Z" fill="white"/>
<path d="M10.1261 16.8619L8.87652 18.8922C8.72776 19.2952 9.18755 19.5711 9.49047 19.2988C9.7429 18.8751 10.0179 18.4631 10.2667 18.0385C10.3073 17.9681 10.3569 17.8942 10.3911 17.8356C10.4858 17.6715 10.6724 17.3857 10.7409 17.2352C10.9095 16.8656 10.3848 16.5491 10.1261 16.8628V16.8619Z" fill="white"/>
<path d="M10.9812 15.644C10.5484 15.7423 10.6566 16.5248 11.2345 16.3463C11.5906 16.2363 11.4996 15.5259 10.9812 15.644Z" fill="white"/>
<path opacity="0.3" d="M22.4689 19.0089L4.01333 7.26178L3.13703 7.80812C3.09827 7.83246 3.0613 7.8577 3.02344 7.88384L22.4653 20.2585C22.4662 20.2233 22.4689 20.1881 22.4689 20.153V19.0089Z" fill="white"/>
<path opacity="0.3" d="M22.4693 18.1876V14.1532L7.86873 4.86005L4.87109 6.72805L22.4693 18.1876Z" fill="white"/>
<g opacity="0.3">
<path d="M1.85938 14.2407V19.7825L13.401 27.2978C13.4686 27.2635 13.5344 27.2266 13.5993 27.186L17.9448 24.4778L1.86028 14.2398L1.85938 14.2407Z" fill="white"/>
</g>
</svg>
