<svg width="40" height="41" viewBox="0 0 40 41" fill="none" xmlns="http://www.w3.org/2000/svg">
<rect x="0.75" y="1.3291" width="38.5" height="38.5" rx="19.25" stroke="white" stroke-width="1.5"/>
<path d="M20 24.3291C22.0711 24.3291 23.75 22.6502 23.75 20.5791C23.75 18.508 22.0711 16.8291 20 16.8291C17.9289 16.8291 16.25 18.508 16.25 20.5791C16.25 22.6502 17.9289 24.3291 20 24.3291Z" stroke="white" stroke-width="1.5" stroke-miterlimit="10"/>
<path d="M24.125 11.9541H15.875C13.3897 11.9541 11.375 13.9688 11.375 16.4541V24.7041C11.375 27.1894 13.3897 29.2041 15.875 29.2041H24.125C26.6103 29.2041 28.625 27.1894 28.625 24.7041V16.4541C28.625 13.9688 26.6103 11.9541 24.125 11.9541Z" stroke="white" stroke-width="1.5" stroke-linecap="round" stroke-linejoin="round"/>
<path d="M24.875 16.8291C25.4963 16.8291 26 16.3254 26 15.7041C26 15.0828 25.4963 14.5791 24.875 14.5791C24.2537 14.5791 23.75 15.0828 23.75 15.7041C23.75 16.3254 24.2537 16.8291 24.875 16.8291Z" fill="white"/>
</svg>
