<svg width="133" height="50" viewBox="0 0 133 50" fill="none" xmlns="http://www.w3.org/2000/svg">
<path d="M58.1006 31.947C57.8041 31.947 57.4634 31.9186 57.0817 31.8634C56.6985 31.8082 56.331 31.6804 55.9793 31.4833C55.6275 31.2861 55.3357 30.9864 55.1086 30.5842C54.8799 30.1836 54.7664 29.63 54.7664 28.925V21.2691C54.7664 20.6634 54.8594 20.1571 55.0439 19.7486C55.2285 19.3401 55.4761 19.0199 55.7853 18.7849C56.0944 18.5499 56.4335 18.3843 56.8041 18.2849C57.1748 18.1856 57.5391 18.1367 57.8972 18.1367C58.8246 18.1367 59.6432 18.1493 60.3529 18.1729C61.0627 18.1982 61.703 18.225 62.2709 18.2565C62.8387 18.2881 63.3576 18.3275 63.8276 18.3764V20.6744H58.711C58.3278 20.6744 58.0312 20.7675 57.8215 20.952C57.6117 21.1382 57.506 21.4221 57.506 21.8053V23.7895L62.9364 23.9378V26.1065L57.506 26.2547V28.1458C57.506 28.4676 57.5581 28.7168 57.6637 28.8966C57.7678 29.0764 57.9114 29.1994 58.0896 29.2672C58.2694 29.3351 58.4571 29.3698 58.6542 29.3698H63.826V31.6678C63.2819 31.7293 62.6794 31.7798 62.0185 31.8161C61.3576 31.8539 60.6905 31.8839 60.017 31.9091C59.3435 31.9343 58.7031 31.947 58.0991 31.947H58.1006Z" fill="black"/>
<path d="M69.258 31.8539L64.9569 18.1367H67.7928L70.9993 28.8887L74.2058 18.1367H77.0244L72.7232 31.8539H69.2565H69.258Z" fill="black"/>
<path d="M81.3996 31.947C81.1031 31.947 80.7624 31.9186 80.3807 31.8634C79.9975 31.8082 79.63 31.6804 79.2782 31.4833C78.9265 31.2861 78.6347 30.9864 78.4076 30.5842C78.1789 30.1836 78.0654 29.63 78.0654 28.925V21.2691C78.0654 20.6634 78.1584 20.1571 78.3429 19.7486C78.5291 19.3401 78.7751 19.0199 79.0842 18.7849C79.3934 18.5499 79.7325 18.3843 80.1031 18.2849C80.4738 18.1856 80.8381 18.1367 81.1962 18.1367C82.1236 18.1367 82.9422 18.1493 83.6519 18.1729C84.3617 18.1982 85.002 18.225 85.5699 18.2565C86.1377 18.2881 86.6566 18.3275 87.1266 18.3764V20.6744H82.01C81.6268 20.6744 81.3302 20.7675 81.1205 20.952C80.9107 21.1382 80.805 21.4221 80.805 21.8053V23.7895L86.237 23.9378V26.1065L80.805 26.2547V28.1458C80.805 28.4676 80.8571 28.7168 80.9627 28.8966C81.0684 29.0764 81.2104 29.1994 81.3886 29.2672C81.5668 29.3351 81.7561 29.3698 81.9532 29.3698H87.125V31.6678C86.5809 31.7293 85.9783 31.7798 85.3175 31.8161C84.6566 31.8539 83.9895 31.8839 83.316 31.9091C82.6425 31.9343 82.0021 31.947 81.3981 31.947H81.3996Z" fill="black"/>
<path d="M89.1297 31.8539V18.1367H94.8014C95.3456 18.1367 95.8519 18.2013 96.3219 18.3307C96.7919 18.46 97.2052 18.6856 97.5648 19.0073C97.9228 19.3291 98.2035 19.7738 98.4086 20.3417C98.6121 20.9095 98.7146 21.6397 98.7146 22.5293C98.7146 23.1602 98.6531 23.6964 98.53 24.1412C98.407 24.586 98.243 24.9503 98.0379 25.2342C97.8345 25.5181 97.6026 25.7468 97.3424 25.9203C97.0837 26.0938 96.8172 26.2358 96.5459 26.3462L99.1042 31.8523H96.3046L94.098 26.7736C93.9497 26.7736 93.7794 26.7705 93.5886 26.7642C93.3961 26.7579 93.2021 26.7547 93.005 26.7547H92.4119C92.2148 26.7547 92.035 26.7484 91.8741 26.7358V31.8523H89.1313L89.1297 31.8539ZM91.8725 24.5686H94.3188C94.5664 24.5686 94.7888 24.5387 94.986 24.4756C95.1831 24.4141 95.3566 24.3052 95.5049 24.1507C95.6532 23.9961 95.7667 23.7895 95.8472 23.5292C95.9276 23.2706 95.967 22.9362 95.967 22.5277C95.967 22.1444 95.926 21.8258 95.8472 21.5735C95.7667 21.3211 95.6532 21.1224 95.5049 20.9804C95.3566 20.8385 95.1831 20.7391 94.986 20.6839C94.7888 20.6287 94.5664 20.6003 94.3188 20.6003H91.8725V24.5671V24.5686Z" fill="black"/>
<path d="M104.088 31.947C103.792 31.947 103.451 31.9186 103.069 31.8634C102.686 31.8082 102.318 31.6804 101.967 31.4833C101.615 31.2861 101.323 30.9864 101.096 30.5842C100.867 30.1836 100.754 29.63 100.754 28.925V21.2691C100.754 20.6634 100.847 20.1571 101.031 19.7486C101.218 19.3401 101.464 19.0199 101.773 18.7849C102.082 18.5499 102.421 18.3843 102.792 18.2849C103.162 18.1856 103.527 18.1367 103.885 18.1367C104.812 18.1367 105.631 18.1493 106.34 18.1729C107.05 18.1982 107.691 18.225 108.258 18.2565C108.826 18.2881 109.345 18.3275 109.815 18.3764V20.6744H104.699C104.315 20.6744 104.019 20.7675 103.809 20.952C103.599 21.1382 103.494 21.4221 103.494 21.8053V23.7895L108.926 23.9378V26.1065L103.494 26.2547V28.1458C103.494 28.4676 103.546 28.7168 103.651 28.8966C103.757 29.0764 103.899 29.1994 104.077 29.2672C104.255 29.3351 104.445 29.3698 104.642 29.3698H109.813V31.6678C109.269 31.7293 108.667 31.7798 108.006 31.8161C107.345 31.8539 106.678 31.8839 106.004 31.9091C105.331 31.9343 104.691 31.947 104.087 31.947H104.088Z" fill="black"/>
<path d="M115.952 31.9659C115.594 31.9659 115.227 31.9565 114.85 31.9375C114.473 31.9186 114.089 31.8886 113.7 31.8445C113.31 31.8019 112.943 31.7514 112.597 31.6962C112.252 31.641 111.936 31.5763 111.653 31.5022V29.3335C112.023 29.3714 112.443 29.4013 112.913 29.4266C113.383 29.4518 113.87 29.4707 114.376 29.4818C114.883 29.4944 115.365 29.5007 115.823 29.5007C116.28 29.5007 116.697 29.4613 117.037 29.3808C117.376 29.3004 117.64 29.1584 117.824 28.955C118.01 28.7515 118.102 28.4708 118.102 28.1111V27.6112C118.102 27.2027 117.982 26.8919 117.741 26.6743C117.499 26.4582 117.157 26.3494 116.712 26.3494H115.545C114.235 26.3494 113.231 26.0623 112.533 25.4882C111.834 24.9141 111.485 23.9346 111.485 22.5498V21.8826C111.485 20.5483 111.869 19.572 112.635 18.9537C113.402 18.3354 114.495 18.0263 115.916 18.0263C116.422 18.0263 116.925 18.0515 117.427 18.1004C117.927 18.1493 118.409 18.2092 118.873 18.2771C119.337 18.3449 119.734 18.4159 120.069 18.49V20.6587C119.501 20.6224 118.867 20.5846 118.168 20.5467C117.469 20.5104 116.824 20.4915 116.231 20.4915C115.812 20.4915 115.436 20.5325 115.11 20.6114C114.782 20.6918 114.533 20.8432 114.359 21.0656C114.186 21.288 114.099 21.6035 114.099 22.0104V22.381C114.099 22.8637 114.235 23.2091 114.506 23.4189C114.777 23.6286 115.179 23.7343 115.711 23.7343H117.064C117.892 23.7343 118.575 23.8857 119.113 24.1886C119.651 24.4914 120.051 24.9094 120.318 25.4393C120.583 25.9708 120.717 26.5765 120.717 27.2563V28.0354C120.717 29.1111 120.517 29.9329 120.114 30.5007C119.712 31.0685 119.157 31.4549 118.446 31.6584C117.734 31.8618 116.903 31.9643 115.952 31.9643V31.9659Z" fill="black"/>
<path d="M125.61 31.8539V20.6019H121.846V18.1367H132.135V20.6019H128.352V31.8539H125.61Z" fill="black"/>
<path d="M54.8359 16.6462V9.79782H57.5629C57.7617 9.79782 57.9651 9.82463 58.1718 9.87668C58.38 9.92873 58.574 10.0313 58.7538 10.1842C58.9336 10.3357 59.0787 10.5565 59.1859 10.8451C59.2947 11.1337 59.3484 11.5139 59.3484 11.9854C59.3484 12.457 59.2916 12.8592 59.1765 13.1526C59.0613 13.4475 58.9131 13.6731 58.7301 13.8324C58.5471 13.9901 58.35 14.0974 58.1386 14.1542C57.9273 14.2094 57.7222 14.2377 57.5251 14.2377C57.432 14.2377 57.2948 14.2346 57.115 14.2283C56.9352 14.222 56.7444 14.2141 56.5425 14.2046C56.3406 14.1952 56.1529 14.1841 55.9794 14.1715C55.8059 14.1589 55.6718 14.1494 55.5788 14.1431V16.6462H54.8343H54.8359ZM55.5804 13.5753H57.432C57.6497 13.5753 57.8468 13.5296 58.0282 13.4365C58.208 13.3435 58.35 13.1826 58.4509 12.9523C58.5534 12.722 58.6039 12.4034 58.6039 11.9933C58.6039 11.5833 58.5534 11.2788 58.4509 11.058C58.3484 10.8372 58.2143 10.6842 58.0456 10.5975C57.8784 10.5107 57.6954 10.4666 57.4967 10.4666H55.5804V13.5753Z" fill="black"/>
<path d="M61.8325 16.6462C61.5659 16.6462 61.3278 16.6036 61.1212 16.52C60.913 16.4364 60.7505 16.2929 60.6322 16.0926C60.5139 15.8907 60.4556 15.6163 60.4556 15.2693V9.79784H61.2V15.1668C61.2 15.3907 61.2379 15.5595 61.312 15.6746C61.3861 15.7898 61.4855 15.867 61.6101 15.9081C61.7347 15.9491 61.8609 15.968 61.9918 15.968H64.4491V16.6478H61.8341L61.8325 16.6462Z" fill="black"/>
<path d="M65.006 16.6462L67.3513 9.79784H68.3008L70.6462 16.6462H69.8828L69.1935 14.692H66.4397L65.7693 16.6462H65.006ZM66.6258 14.0217H69.0074L67.8261 10.4477L66.6258 14.0217Z" fill="black"/>
<path d="M71.8085 16.6462V9.79784H72.4125L75.9866 15.3718V9.79784H76.7216V16.6462H76.1159L72.5419 11.0722V16.6462H71.8069H71.8085Z" fill="black"/>
<path d="M94.1294 39.4751V35.3286H95.6704C96.0411 35.3286 96.3187 35.4185 96.5 35.5983C96.6814 35.7781 96.7729 36.0446 96.7729 36.3979C96.7729 36.5699 96.7477 36.7197 96.6972 36.8459C96.6467 36.972 96.5773 37.0746 96.489 37.155C96.4007 37.2354 96.3029 37.2906 96.1941 37.3206C96.2729 37.3427 96.3549 37.3774 96.4385 37.4216C96.5237 37.4673 96.601 37.5288 96.6751 37.6108C96.7477 37.6913 96.8076 37.7906 96.8518 37.9089C96.8959 38.0272 96.9196 38.166 96.9196 38.3285C96.9196 38.6171 96.8723 38.8458 96.7761 39.0114C96.6798 39.177 96.5442 39.2969 96.3675 39.3679C96.1909 39.4388 95.9796 39.4751 95.7319 39.4751H94.1279H94.1294ZM94.6973 37.1298H95.6878C95.8486 37.1298 95.9795 37.0714 96.0789 36.9531C96.1783 36.8348 96.2303 36.6803 96.2335 36.4894C96.2414 36.2465 96.1909 36.0762 96.0821 35.98C95.9732 35.8838 95.8344 35.8364 95.6657 35.8364H94.6973V37.1298ZM94.6973 38.9688H95.7161C95.8518 38.9688 95.9669 38.9467 96.0647 38.901C96.1625 38.8553 96.2398 38.7811 96.295 38.6755C96.3518 38.5698 96.3802 38.4231 96.3802 38.2307C96.3802 38.0919 96.3502 37.9736 96.2903 37.8742C96.2303 37.7749 96.1499 37.6992 96.0505 37.6455C95.9512 37.5935 95.8392 37.5667 95.7161 37.5667H94.6973V38.9673V38.9688Z" fill="black"/>
<path d="M98.3989 40.8079L98.7649 39.4752C98.645 39.472 98.5299 39.4468 98.421 39.3995C98.3122 39.3521 98.216 39.2748 98.1308 39.1692C98.0456 39.0635 97.9778 38.9184 97.9258 38.7386L97.2507 36.4658H97.8422L98.4494 38.6203C98.4825 38.7212 98.522 38.7985 98.5645 38.8506C98.6071 38.9026 98.6513 38.9389 98.6939 38.961C98.7365 38.9815 98.7759 38.9941 98.809 38.9973C98.8421 39.0004 98.8626 39.0036 98.8705 39.0036L99.574 36.4658H100.153L99.1182 40.2512L98.8484 40.8079H98.3989Z" fill="black"/>
<path d="M103.841 37.2308C103.841 38.0872 103.653 38.2244 103.205 38.2244C102.938 38.2244 102.711 38.1724 102.449 38.1124L102.432 38.1093C102.388 38.0998 102.358 38.0604 102.358 38.0162V36.6361C102.358 36.6046 102.374 36.5762 102.399 36.5589C102.721 36.3365 102.981 36.1977 103.284 36.1977C103.643 36.1977 103.839 36.3617 103.839 37.2308M103.58 35.5053C103.183 35.5053 102.722 35.6677 102.405 35.9169C102.377 35.939 102.341 35.9453 102.308 35.9311C102.274 35.9185 102.254 35.8901 102.249 35.8554L102.23 35.7056C102.222 35.6393 102.164 35.5889 102.096 35.5889H101.653C101.579 35.5889 101.519 35.6488 101.519 35.7213V39.972C101.519 40.0461 101.579 40.1045 101.653 40.1045H102.222C102.296 40.1045 102.356 40.0445 102.356 39.972V39.2433C102.361 39.0982 102.36 38.9484 102.353 38.7859C102.353 38.7512 102.369 38.7197 102.397 38.7023C102.426 38.6834 102.462 38.6834 102.492 38.6976C102.763 38.8364 103.084 38.9074 103.44 38.9074C104.336 38.9074 104.702 38.4232 104.702 37.2339C104.702 36.0447 104.334 35.5021 103.579 35.5021" fill="black"/>
<path d="M108.192 35.5904H107.623C107.549 35.5904 107.489 35.6503 107.489 35.7229V37.8112C107.489 37.8459 107.47 37.8774 107.44 37.8932C107.086 38.0903 106.831 38.2039 106.563 38.2039C106.418 38.2039 106.328 38.1787 106.271 38.1219C106.208 38.0588 106.183 37.9515 106.186 37.7717V35.7213C106.186 35.6472 106.126 35.5888 106.052 35.5888H105.476C105.402 35.5888 105.342 35.6488 105.342 35.7213V38.0067C105.342 38.6014 105.659 38.9152 106.26 38.9152C106.672 38.9152 107.057 38.7843 107.473 38.5036C107.5 38.4846 107.534 38.4815 107.566 38.4957C107.596 38.5099 107.618 38.5367 107.623 38.5698L107.643 38.7149C107.653 38.7812 107.709 38.8301 107.776 38.8301H108.194C108.268 38.8301 108.328 38.7701 108.328 38.6976V35.7229C108.328 35.6488 108.268 35.5904 108.194 35.5904" fill="black"/>
<path d="M111.268 35.499C110.867 35.499 110.457 35.6488 110.014 35.9564C109.985 35.9753 109.951 35.9784 109.919 35.9642C109.888 35.95 109.867 35.9217 109.864 35.8885L109.844 35.7087C109.836 35.6409 109.779 35.5904 109.709 35.5904H109.254C109.179 35.5904 109.12 35.6504 109.12 35.7229V38.6976C109.12 38.7701 109.179 38.8301 109.254 38.8301H109.829C109.866 38.8301 109.899 38.8159 109.924 38.7907C109.949 38.7654 109.963 38.7323 109.963 38.696L109.957 36.6488C109.957 36.6141 109.976 36.5825 110.008 36.5652C110.394 36.3554 110.692 36.2071 111.009 36.2071C111.261 36.2071 111.334 36.3049 111.334 36.6456V38.696C111.334 38.7686 111.394 38.8285 111.468 38.8285H112.044C112.118 38.8285 112.178 38.7686 112.178 38.696V36.4043C112.178 35.8191 111.854 35.4958 111.266 35.4958" fill="black"/>
<path d="M114.888 35.5904H114.167C114.113 35.5904 114.071 35.5478 114.071 35.4958V34.8018C114.071 34.7277 114.011 34.6693 113.936 34.6693H113.367C113.293 34.6693 113.233 34.7293 113.233 34.8018V35.5021C113.233 35.5526 113.194 35.5936 113.143 35.5967L112.779 35.6172C112.708 35.622 112.653 35.6788 112.653 35.7497V36.0699C112.653 36.144 112.713 36.2024 112.787 36.2024H113.138C113.19 36.2024 113.235 36.245 113.235 36.297L113.241 37.9484C113.241 38.5541 113.569 38.9026 114.138 38.9026C114.324 38.9026 114.649 38.8711 114.875 38.819C114.943 38.8033 114.987 38.7402 114.976 38.6708L114.919 38.2796C114.91 38.215 114.853 38.1661 114.787 38.1661H114.444C114.164 38.1661 114.074 38.0809 114.074 37.8128V36.2986C114.074 36.2466 114.116 36.204 114.17 36.204H114.891C114.965 36.204 115.025 36.144 115.025 36.0715V35.7245C115.025 35.6504 114.965 35.592 114.891 35.592" fill="black"/>
<path d="M121.356 35.499H121.326C120.952 35.499 120.539 35.6551 120.132 35.9485C120.105 35.9674 120.07 35.9721 120.039 35.9595C120.007 35.9469 119.985 35.9185 119.98 35.8854L119.952 35.7024C119.943 35.6362 119.886 35.5889 119.82 35.5889H119.406C119.332 35.5889 119.272 35.6488 119.272 35.7213V38.696C119.272 38.7686 119.332 38.8285 119.406 38.8285H119.982C120.056 38.8285 120.116 38.7686 120.116 38.696V36.6204C120.116 36.5809 120.141 36.5462 120.178 36.532C120.567 36.3854 120.865 36.2797 121.167 36.2797H121.294C121.362 36.2797 121.42 36.2292 121.428 36.1614L121.488 35.6441C121.493 35.6062 121.48 35.5684 121.455 35.54C121.43 35.5116 121.394 35.4958 121.354 35.4958" fill="black"/>
<path d="M123.706 36.9689H122.711C122.684 36.9689 122.659 36.9579 122.64 36.939C122.621 36.9185 122.611 36.8932 122.614 36.8664C122.655 36.3223 122.823 36.1645 123.354 36.1645C123.824 36.1645 123.976 36.275 123.976 36.6156C123.976 36.7797 123.944 36.9689 123.704 36.9689M122.741 37.562H123.928C124.515 37.562 124.813 37.2481 124.813 36.6283C124.813 35.857 124.338 35.4974 123.319 35.4974C122.742 35.4974 122.357 35.6157 122.111 35.8712C121.854 36.1377 121.734 36.5604 121.734 37.2039C121.734 38.431 122.193 38.9089 123.373 38.9089C123.559 38.9089 124.2 38.8963 124.632 38.7276C124.689 38.7055 124.723 38.6471 124.714 38.5856L124.67 38.2717C124.66 38.2008 124.594 38.1503 124.523 38.1582C124.144 38.1992 123.742 38.2244 123.472 38.2244C122.984 38.2244 122.734 38.1424 122.646 37.6755C122.641 37.6471 122.648 37.6188 122.666 37.5983C122.685 37.5762 122.712 37.5636 122.741 37.5636" fill="black"/>
<path d="M127.586 36.3854V37.8222C127.586 37.8538 127.57 37.8837 127.542 37.9011C127.226 38.1077 127.057 38.1976 126.752 38.1976C126.352 38.1976 126.163 38.0462 126.163 37.1834C126.163 36.3207 126.329 36.1819 126.799 36.1819C127.04 36.1819 127.237 36.2276 127.466 36.2813L127.512 36.2923C127.556 36.3018 127.586 36.3412 127.586 36.3854ZM128.296 34.2167H127.72C127.646 34.2167 127.586 34.2766 127.586 34.3492V35.1567C127.586 35.3318 127.589 35.4658 127.598 35.592C127.6 35.6267 127.586 35.6583 127.556 35.6772C127.528 35.6961 127.493 35.6993 127.461 35.6835C127.198 35.5589 126.895 35.4958 126.561 35.4958C125.665 35.4958 125.299 35.9863 125.299 37.1882C125.299 38.39 125.666 38.9074 126.455 38.9074C126.952 38.9074 127.335 38.6944 127.57 38.5146C127.597 38.4941 127.632 38.4894 127.663 38.502C127.695 38.5146 127.717 38.543 127.723 38.5762L127.744 38.7149C127.753 38.7812 127.81 38.8285 127.876 38.8285H128.296C128.37 38.8285 128.43 38.7686 128.43 38.696V34.3476C128.43 34.2734 128.37 34.2151 128.296 34.2151" fill="black"/>
<path d="M117.779 34.2167C117.779 34.6394 117.432 34.9832 117.004 34.9832C116.577 34.9832 116.23 34.6409 116.23 34.2167C116.23 33.7924 116.577 33.4501 117.004 33.4501C117.432 33.4501 117.779 33.7924 117.779 34.2167Z" fill="#FC0A8B"/>
<path d="M117.004 38.0383C116.528 38.0383 116.143 37.6566 116.143 37.1866C116.143 36.7166 116.528 36.3349 117.004 36.3349C117.48 36.3349 117.865 36.7166 117.865 37.1866C117.865 37.6566 117.48 38.0383 117.004 38.0383ZM117.01 35.4769C115.826 35.4769 115.386 35.9406 115.386 37.1898C115.386 38.4389 115.826 38.8948 117.01 38.8948C118.195 38.8948 118.622 38.4326 118.622 37.1898C118.622 35.9469 118.186 35.4769 117.01 35.4769Z" fill="black"/>
<path d="M35.7403 40.4278C34.7372 40.0839 31.1332 35.4942 31.1332 35.4942L25.0593 27.0544C22.572 22.8148 20.0452 27.0544 20.0452 27.0544L15.4791 34.081C12.2726 37.2875 11.6196 34.4611 11.6196 34.4611L10.2064 32.2324C7.92258 29.0259 6.23809 32.2324 6.23809 32.2324L1.96062 38.7512C5.00154 46.7635 11.7789 50 23.7644 50C34.6757 50 41.2354 47.273 44.5713 40.6297C41.666 40.5681 36.7135 40.759 35.7419 40.4262L35.7403 40.4278Z" fill="black"/>
<path d="M13.14 6.62913C13.14 6.62913 15.8039 2.98729 18.5215 7.49819L29.2846 22.7737C29.2846 22.7737 32.5605 27.6253 36.2701 22.0813L39.0019 18.2076C39.0019 18.2076 40.7558 15.3134 43.486 18.3701L47.3282 23.6633C47.0064 6.44617 40.5098 0 23.7627 0C7.01555 0 0.299675 6.47456 0 23.7769L13.14 6.62913Z" fill="#FC0A8B"/>
</svg>
