<svg width="33" height="56" viewBox="0 0 33 56" fill="none" xmlns="http://www.w3.org/2000/svg">
<path d="M24.3963 7.89114C24.3963 12.2498 20.8638 15.7858 16.5016 15.7858C12.1394 15.7858 8.6069 12.2533 8.6069 7.89114C8.6069 3.52893 12.1394 0 16.5016 0C20.8638 0 24.3963 3.5325 24.3963 7.89114Z" fill="#FC0A8B"/>
<path d="M16.5016 47.1652C11.6516 47.1652 7.72023 43.2339 7.72023 38.3838C7.72023 33.5338 11.6516 29.6024 16.5016 29.6024C21.3517 29.6024 25.283 33.5338 25.283 38.3838C25.283 43.2339 21.3517 47.1652 16.5016 47.1652ZM16.5693 20.7712C4.49041 20.7712 0 25.5536 0 38.4194C0 51.2853 4.49041 56 16.5693 56C28.6481 56 33.0032 51.2354 33.0032 38.4194C33.0032 25.6035 28.5484 20.7712 16.5693 20.7712Z" fill="white"/>
</svg>
