<svg width="48" height="65" viewBox="0 0 48 65" fill="none" xmlns="http://www.w3.org/2000/svg">
<path d="M37.1326 64.7072L24.2405 61.0776C23.9159 60.9856 23.5697 60.991 23.2488 61.0902L11.8749 64.6261C10.7498 64.9759 9.6084 64.1356 9.6084 62.9564V46.7953C9.6084 45.8306 10.3909 45.0481 11.3556 45.0481H37.6068C38.5714 45.0481 39.354 45.8306 39.354 46.7953V63.0213C39.354 64.1807 38.2469 65.0173 37.1326 64.7036V64.7072Z" fill="#986700"/>
<path d="M0.517334 18.75V38.8346C0.517334 41.7755 2.03373 44.5071 4.52921 46.0632L19.7148 55.5258C22.4718 57.2442 25.9662 57.2442 28.7231 55.5258L43.9087 46.0632C46.4042 44.5071 47.9206 41.7755 47.9206 38.8346V18.75C47.9206 15.8091 46.4042 13.0775 43.9087 11.5214L28.7231 2.05878C25.9662 0.340433 22.4718 0.340433 19.7148 2.05878L4.52921 11.5214C2.03373 13.0775 0.517334 15.8091 0.517334 18.75Z" fill="#E9BF5F"/>
<path d="M29.7635 35.4411C29.7635 35.6575 29.9547 36.0019 30.1188 36.1534C31.4927 37.4408 34.9168 38.5046 35.0989 40.5962C35.299 42.8969 33.047 44.3051 31.0365 43.1782C29.0838 42.0837 27.1869 40.4718 25.2576 39.2979C24.8321 38.8886 24.43 37.9871 24.43 37.3993V34.4657L22.6612 35.3943L22.6522 41.312C21.866 44.5792 17.5386 44.2745 17.3168 40.7801C17.1617 38.3387 17.3799 35.6575 17.3943 33.2071C17.535 32.4462 18.0002 31.7827 18.6655 31.395L23.725 28.858L22.9803 26.9973C22.3925 27.7437 22.0571 28.593 21.1339 29.0041C20.9915 29.0672 20.4938 29.2493 20.3712 29.2493H15.5426V42.9708C15.5426 43.052 15.2757 43.3801 15.1837 43.4414C14.4391 43.9355 13.7052 43.2287 13.7611 42.4389L13.7665 29.1105C11.0691 27.9763 11.6407 24.1358 14.6212 23.9122C15.9104 23.8148 17.3114 23.9987 18.6114 23.9014L20.9338 20.3871C18.029 20.3547 16.2782 17.037 18.0651 14.6731C20.2613 11.7665 24.8104 13.5823 24.4228 17.2984C24.3741 17.7726 24.1307 18.1874 24.0153 18.6381L24.8086 18.8671C25.1224 18.4218 25.5137 18.1513 26.0077 17.9349C27.9298 17.0947 30.0232 16.5087 31.1357 18.8347L32.6359 23.0846C32.726 23.1927 33.3625 23.1296 33.5699 23.1585C35.0628 23.3586 35.5731 24.6605 35.986 25.8974C36.4746 27.3651 36.6009 28.8707 35.0574 29.7722C34.4876 30.1058 31.1105 31.2922 30.5064 31.3247C30.2432 31.3391 30.0178 31.294 29.7635 31.2634V35.4411ZM20.7878 18.5786C23.0813 18.7067 23.3265 15.2862 21.1249 15.0392C18.6872 14.7651 18.46 18.447 20.7878 18.5786ZM29.6896 20.0445C29.466 19.464 29.2983 18.8311 28.505 18.9465C28.2309 18.9861 26.6803 19.5505 26.4765 19.7038C26.2728 19.857 26.1501 20.0481 26.1159 20.2934L27.8649 24.7759L30.9464 23.7301C30.5461 22.5004 30.153 21.2508 29.6896 20.0445ZM22.8325 20.7423C21.7308 22.0117 20.8851 23.9807 19.7997 25.2951C19.5725 25.5692 19.4408 25.6612 19.0712 25.6936C17.6684 25.818 15.9284 25.5115 14.5707 25.6972C13.5628 25.8343 13.5646 27.3272 14.5707 27.4643L20.1801 27.4552C20.4091 27.4102 20.5461 27.311 20.6958 27.1415C21.3341 26.4239 21.8804 25.0535 22.5349 24.417C23.0056 23.9609 23.6925 24.1249 23.9882 24.6803C24.4444 26.02 25.1711 27.3633 25.6002 28.6994C25.7463 29.1574 25.8815 29.5775 25.4578 29.9489L19.5887 32.9096C19.2245 33.1152 19.1253 33.5028 19.0947 33.8977C18.9216 36.1065 19.2281 38.5407 19.0983 40.7747C19.1037 41.9106 20.5047 42.246 20.8707 41.1281C20.9969 39.1267 20.7156 36.9467 20.8707 34.9651C20.914 34.4278 21.0113 34.2331 21.4639 33.959C23.3373 32.8267 25.6345 32.0207 27.5493 30.919C27.9713 30.6738 28.0813 30.2014 27.9262 29.7488C26.6208 26.9864 25.7787 23.7427 24.4372 21.029C24.2767 20.7045 24.1289 20.434 23.7304 20.3709C23.3319 20.3078 23.0795 20.4538 22.8289 20.7441L22.8325 20.7423ZM29.5742 29.051C29.8663 29.5378 30.2576 29.5865 30.7697 29.4513C31.8605 29.1646 32.9911 28.5768 34.0892 28.2684C34.5363 28.0304 34.6229 27.6464 34.5363 27.1686C34.4804 26.8602 34.0856 25.7387 33.9413 25.452C33.7303 25.0283 33.3084 24.8173 32.8414 24.9453L28.5194 26.4599C28.9431 27.2136 29.1433 28.3334 29.5742 29.0492V29.051ZM26.2187 33.6128C26.2692 34.7632 26.1177 36.0235 26.2078 37.1613C26.2421 37.6085 26.3178 37.8411 26.664 38.1259C28.2453 39.426 30.4289 40.4555 32.0751 41.7213C33.0632 42.1378 33.7953 40.9297 32.9911 40.2121C31.8299 39.1735 29.9042 38.3748 28.6961 37.3362C28.3012 36.9954 27.9857 36.4419 27.9857 35.9135V32.6842L26.2169 33.6128H26.2187Z" fill="white"/>
<path opacity="0.2" d="M44.7378 38.63L7.82672 15.1357L6.07412 16.2284C5.99658 16.2771 5.92265 16.3276 5.84692 16.3799L44.7306 41.1291C44.7324 41.0588 44.7378 40.9885 44.7378 40.9181V38.63Z" fill="white"/>
<path opacity="0.2" d="M44.7377 36.9874V28.9185L15.5348 10.3323L9.53955 14.0683L44.7377 36.9874Z" fill="white"/>
<g opacity="0.2">
<path d="M3.51733 29.0936V40.1772L26.6005 55.2078C26.7357 55.1393 26.8674 55.0653 26.9972 54.9842L35.6881 49.5677L3.51914 29.0918L3.51733 29.0936Z" fill="white"/>
</g>
</svg>
