<svg width="48" height="65" viewBox="0 0 48 65" fill="none" xmlns="http://www.w3.org/2000/svg">
<path d="M37.1328 64.8605L24.2407 61.2309C23.9162 61.1389 23.57 61.1443 23.249 61.2435L11.8751 64.7794C10.75 65.1292 9.60864 64.2889 9.60864 63.1097V46.9486C9.60864 45.984 10.3912 45.2014 11.3558 45.2014H37.607C38.5717 45.2014 39.3542 45.984 39.3542 46.9486V63.1746C39.3542 64.334 38.2471 65.1706 37.1328 64.8569V64.8605Z" fill="#986700"/>
<path d="M0.517334 18.9033V38.9879C0.517334 41.9288 2.03373 44.6605 4.52921 46.2165L19.7148 55.6792C22.4718 57.3975 25.9662 57.3975 28.7231 55.6792L43.9087 46.2165C46.4042 44.6605 47.9206 41.9288 47.9206 38.9879V18.9033C47.9206 15.9625 46.4042 13.2308 43.9087 11.6747L28.7249 2.2121C25.968 0.493753 22.4736 0.493753 19.7167 2.2121L4.53102 11.6747C2.03554 13.2308 0.519139 15.9625 0.519139 18.9033H0.517334Z" fill="#E9BF5F"/>
<path d="M29.7635 35.5927C29.7635 35.8091 29.9547 36.1535 30.1188 36.305C31.4927 37.5924 34.9168 38.6562 35.0989 40.7478C35.299 43.0485 33.047 44.4567 31.0365 43.3298C29.0838 42.2353 27.1869 40.6234 25.2576 39.4496C24.8321 39.0403 24.43 38.1387 24.43 37.5509V34.6173L22.6612 35.5459L22.6522 41.4636C21.866 44.7308 17.5386 44.4261 17.3168 40.9317C17.1617 38.4903 17.3799 35.8091 17.3943 33.3587C17.535 32.5978 18.0002 31.9343 18.6655 31.5466L23.725 29.0097L22.9803 27.1489C22.3925 27.8954 22.0571 28.7446 21.1339 29.1557C20.9915 29.2188 20.4938 29.4009 20.3712 29.4009H15.5426V43.1225C15.5426 43.2036 15.2757 43.5318 15.1837 43.5931C14.4391 44.0871 13.7052 43.3803 13.7611 42.5905L13.7665 29.2621C11.0691 28.128 11.6407 24.2874 14.6212 24.0638C15.9104 23.9664 17.3114 24.1503 18.6114 24.053L20.9338 20.5387C18.029 20.5063 16.2782 17.1886 18.0651 14.8247C20.2613 11.9182 24.8105 13.7339 24.4228 17.45C24.3741 17.9243 24.1307 18.339 24.0153 18.7897L24.8087 19.0187C25.1224 18.5734 25.5137 18.3029 26.0077 18.0865C27.9298 17.2463 30.0232 16.6603 31.1357 18.9863L32.6359 23.2362C32.726 23.3443 33.3625 23.2812 33.5699 23.3101C35.0628 23.5102 35.5731 24.8121 35.986 26.049C36.4746 27.5167 36.6009 29.0223 35.0574 29.9238C34.4876 30.2574 31.1105 31.4438 30.5064 31.4763C30.2432 31.4907 30.0178 31.4456 29.7635 31.415V35.5927ZM20.7878 18.7302C23.0813 18.8583 23.3265 15.4378 21.1249 15.1908C18.6872 14.9167 18.46 18.5986 20.7878 18.7302ZM29.6896 20.198C29.466 19.6174 29.2983 18.9845 28.505 19.0999C28.2309 19.1395 26.6803 19.7039 26.4765 19.8572C26.2728 20.0104 26.1502 20.2016 26.1159 20.4468L27.8649 24.9293L30.9464 23.8835C30.5461 22.6538 30.153 21.4042 29.6896 20.198ZM22.8325 20.8958C21.7308 22.1651 20.8851 24.1341 19.7997 25.4486C19.5725 25.7226 19.4408 25.8146 19.0712 25.847C17.6684 25.9715 15.9284 25.6649 14.5707 25.8506C13.5628 25.9877 13.5646 27.4806 14.5707 27.6177L20.1801 27.6087C20.4091 27.5636 20.5461 27.4644 20.6958 27.2949C21.3341 26.5773 21.8804 25.2069 22.5349 24.5705C23.0056 24.1143 23.6925 24.2784 23.9882 24.8337C24.4444 26.1734 25.1711 27.5167 25.6002 28.8528C25.7463 29.3108 25.8815 29.7309 25.4578 30.1023L19.5887 33.063C19.2245 33.2686 19.1253 33.6562 19.0947 34.0511C18.9216 36.2599 19.2281 38.6941 19.0983 40.9281C19.1037 42.064 20.5047 42.3994 20.8707 41.2815C20.9969 39.2801 20.7156 37.1001 20.8707 35.1185C20.914 34.5812 21.0113 34.3865 21.4639 34.1124C23.3373 32.9801 25.6345 32.1741 27.5494 31.0724C27.9713 30.8272 28.0813 30.3548 27.9262 29.9022C26.6208 27.1399 25.7787 23.8961 24.4372 21.1824C24.2767 20.8579 24.1289 20.5874 23.7304 20.5243C23.3319 20.4612 23.0795 20.6073 22.8289 20.8976L22.8325 20.8958ZM29.5742 29.2044C29.8663 29.6912 30.2576 29.7399 30.7697 29.6047C31.8605 29.318 32.9911 28.7302 34.0892 28.4219C34.5363 28.1838 34.6229 27.7998 34.5363 27.322C34.4804 27.0136 34.0856 25.8921 33.9413 25.6054C33.7303 25.1817 33.3084 24.9707 32.8414 25.0988L28.5194 26.6134C28.9431 27.367 29.1433 28.4868 29.5742 29.2026V29.2044ZM26.2187 33.7644C26.2692 34.9148 26.1177 36.1751 26.2079 37.3129C26.2421 37.7601 26.3178 37.9927 26.664 38.2776C28.2453 39.5776 30.4289 40.6071 32.0751 41.8729C33.0632 42.2894 33.7953 41.0814 32.9911 40.3637C31.8299 39.3251 29.9042 38.5264 28.6961 37.4878C28.3012 37.147 27.9857 36.5935 27.9857 36.0652V32.8358L26.2169 33.7644H26.2187Z" fill="white"/>
</svg>
