<svg width="65" height="65" viewBox="0 0 65 65" fill="none" xmlns="http://www.w3.org/2000/svg">
<rect x="0.62793" width="64.08" height="64.08" rx="32.04" fill="#FFE9F8"/>
<path d="M32.8281 33.0813C32.7346 33.0679 32.6145 33.0679 32.5077 33.0813C30.1581 33.0012 28.2891 31.0788 28.2891 28.7158C28.2891 26.2995 30.2382 24.337 32.6679 24.337C35.0842 24.337 37.0467 26.2995 37.0467 28.7158C37.0333 31.0788 35.1777 33.0012 32.8281 33.0813Z" stroke="#D60085" stroke-width="2.0025" stroke-linecap="round" stroke-linejoin="round"/>
<path d="M41.6658 41.8923C39.2895 44.0684 36.1389 45.39 32.6679 45.39C29.1969 45.39 26.0463 44.0684 23.67 41.8923C23.8035 40.6374 24.6045 39.4092 26.033 38.448C29.6909 36.0183 35.6717 36.0183 39.3029 38.448C40.7313 39.4092 41.5323 40.6374 41.6658 41.8923Z" stroke="#D60085" stroke-width="2.0025" stroke-linecap="round" stroke-linejoin="round"/>
<path d="M32.668 45.39C40.041 45.39 46.018 39.413 46.018 32.04C46.018 24.667 40.041 18.69 32.668 18.69C25.295 18.69 19.318 24.667 19.318 32.04C19.318 39.413 25.295 45.39 32.668 45.39Z" stroke="#D60085" stroke-width="2.0025" stroke-linecap="round" stroke-linejoin="round"/>
</svg>
