<svg width="49" height="65" viewBox="0 0 49 65" fill="none" xmlns="http://www.w3.org/2000/svg">
<path d="M36.9697 63.9982L24.0776 60.3686C23.7531 60.2766 23.4069 60.282 23.0859 60.3812L11.712 63.9171C10.5869 64.2669 9.44556 63.4266 9.44556 62.2474V46.0863C9.44556 45.1217 10.2281 44.3391 11.1928 44.3391H37.444C38.4086 44.3391 39.1912 45.1217 39.1912 46.0863V62.3123C39.1912 63.4717 38.0841 64.3083 36.9697 63.9946V63.9982Z" fill="#B4B4B4"/>
<path d="M0.926025 18.041V38.1256C0.926025 41.0665 2.44243 43.7982 4.9379 45.3542L20.1235 54.8169C22.8805 56.5352 26.3749 56.5352 29.1318 54.8169L44.3174 45.3542C46.8129 43.7982 48.3293 41.0665 48.3293 38.1256V18.041C48.3293 15.1002 46.8129 12.3685 44.3174 10.8124L29.1318 1.34979C26.3749 -0.368551 22.8805 -0.368551 20.1235 1.34979L4.9379 10.8124C2.44243 12.3685 0.926025 15.1002 0.926025 18.041Z" fill="#646464"/>
<path d="M24.1662 11.4706C36.539 11.0451 44.7629 24.4186 38.8452 35.3399C33.4918 45.2191 19.6603 46.73 12.3722 38.1221C3.59111 27.7525 10.6466 11.9358 24.168 11.4706H24.1662ZM23.6289 12.8788C13.4107 13.5153 6.99535 24.3284 11.1695 33.6847C15.7872 44.0344 30.0334 45.448 36.649 36.2324C43.9533 26.0558 36.0666 12.1053 23.6289 12.8806V12.8788Z" fill="white"/>
<path d="M24.0994 14.2222C33.9461 13.8039 40.897 23.9661 36.9212 33.014C32.7326 42.5452 19.6981 43.8416 13.6848 35.331C7.56326 26.6671 13.5694 14.6676 24.0994 14.2222ZM36.6615 28.2935C35.9205 28.4161 35.6302 27.3559 36.2342 27.026C36.346 26.9647 36.6255 26.9556 36.6453 26.8529C36.4488 24.1951 35.4048 21.6077 33.6089 19.6477C32.8787 20.2373 32.0078 19.4205 32.6244 18.6632C30.6645 16.8692 28.0734 15.8179 25.4175 15.6268C25.3021 15.6485 25.3273 16.2633 24.8134 16.3445C24.213 16.44 24.076 16.0992 23.8812 15.6268C21.2235 15.8234 18.6342 16.8673 16.6743 18.6632C17.2891 19.4169 16.4255 20.2391 15.6898 19.6477C13.8939 21.6077 12.8481 24.1987 12.6534 26.8529C12.675 26.9683 13.2899 26.943 13.371 27.4569C13.4522 27.9708 13.1474 28.2917 12.6354 28.326C12.7309 28.9877 12.7904 29.6513 12.9383 30.3058C13.3782 32.2549 14.3537 34.1247 15.6898 35.5943C16.4363 34.9542 17.2837 35.816 16.6743 36.5787C18.6342 38.3746 21.2271 39.4168 23.8812 39.6151C23.9966 39.5935 23.9714 38.9787 24.4853 38.8975C25.0857 38.802 25.2227 39.1427 25.4175 39.6151C28.0788 39.415 30.6609 38.3782 32.6244 36.5787C32.015 35.8142 32.8624 34.9542 33.6089 35.5943C35.439 33.6018 36.4578 30.9874 36.6615 28.2917V28.2935Z" fill="white"/>
<path d="M24.5682 17.237C25.4157 17.1901 26.0107 17.8428 26.173 18.6164C26.5751 20.5204 26.5949 22.6463 26.9988 24.5684C27.0889 24.8136 27.3738 24.9723 27.5325 25.176C28.7171 26.6888 28.7189 28.5658 27.5433 30.084C27.5181 30.3581 28.7893 30.9766 28.2718 31.348C27.9166 31.5265 27.4802 30.6881 27.1989 30.5402C27.1106 30.4933 27.0908 30.4915 27.0312 30.5763L26.0774 37.0025C25.3688 38.4972 23.4683 38.261 23.124 36.6292C22.7219 34.7234 22.7002 32.6011 22.2981 30.6772C21.9664 30.2247 21.5715 29.9019 21.3028 29.3916C20.587 28.0249 20.7944 26.3516 21.7536 25.1616C21.777 24.8965 20.605 24.3466 21.1369 24.004C21.4435 23.8075 21.8564 24.5774 22.098 24.7036C22.1863 24.7505 22.2062 24.7523 22.2657 24.6675L23.2375 18.1908C23.4323 17.6932 24.0327 17.2658 24.57 17.2352L24.5682 17.237ZM25.5221 23.9301L24.79 18.7913L24.6169 18.6308L24.4655 18.9499L23.7767 23.9319C24.3464 23.8291 24.9487 23.8291 25.5203 23.9319L25.5221 23.9301ZM24.3663 25.2247C21.3281 25.5547 21.6977 30.2301 24.817 30.0353C27.9923 29.837 27.6479 24.8695 24.3663 25.2247ZM25.5221 31.3137C24.9433 31.4111 24.3537 31.4111 23.7785 31.3137L24.4673 36.2957L24.6187 36.6148L24.7918 36.4543L25.5239 31.3155L25.5221 31.3137Z" fill="white"/>
<path d="M18.6272 21.6004C18.6686 21.5589 18.7894 21.5138 18.8471 21.5192C18.9283 21.5265 19.9362 22.4857 19.9849 22.5903C20.1417 22.9311 19.8911 23.1096 19.5792 22.9275C19.5161 22.8896 18.6037 21.9808 18.5749 21.9159C18.5316 21.8168 18.5532 21.6761 18.6272 21.6004Z" fill="white"/>
<path d="M29.4311 32.4026C29.4726 32.3612 29.5934 32.3161 29.6511 32.3215C29.7322 32.3287 30.7402 33.2879 30.7888 33.3925C30.9457 33.7333 30.6951 33.9118 30.3831 33.7297C30.32 33.6918 29.4077 32.7831 29.3788 32.7182C29.3355 32.619 29.3572 32.4784 29.4311 32.4026Z" fill="white"/>
</svg>
