<svg width="49" height="65" viewBox="0 0 49 65" fill="none" xmlns="http://www.w3.org/2000/svg">
<path d="M36.97 64.7072L24.0779 61.0776C23.7533 60.9856 23.4071 60.991 23.0862 61.0902L11.7123 64.6261C10.5872 64.9759 9.4458 64.1356 9.4458 62.9564V46.7953C9.4458 45.8306 10.2283 45.0481 11.193 45.0481H37.4442C38.4089 45.0481 39.1914 45.8306 39.1914 46.7953V63.0213C39.1914 64.1807 38.0843 65.0173 36.97 64.7036V64.7072Z" fill="#B4B4B4"/>
<path d="M0.926025 18.75V38.8346C0.926025 41.7755 2.44242 44.5071 4.9379 46.0632L20.1235 55.5258C22.8805 57.2442 26.3749 57.2442 29.1318 55.5258L44.3174 46.0632C46.8129 44.5071 48.3293 41.7755 48.3293 38.8346V18.75C48.3293 15.8091 46.8129 13.0775 44.3174 11.5214L29.1318 2.05878C26.3749 0.340433 22.8805 0.340433 20.1235 2.05878L4.9379 11.5214C2.44242 13.0775 0.926025 15.8091 0.926025 18.75Z" fill="#646464"/>
<path d="M24.1662 12.1796C36.539 11.7541 44.7629 25.1276 38.8451 36.0489C33.4918 45.928 19.6603 47.439 12.3722 38.8311C3.59111 28.4615 10.6466 12.6448 24.168 12.1796H24.1662ZM23.6289 13.5896C13.4107 14.2261 6.99535 25.0392 11.1695 34.3955C15.7872 44.7452 30.0334 46.1588 36.649 36.9432C43.9533 26.7666 36.0666 12.8161 23.6289 13.5914V13.5896Z" fill="white"/>
<path d="M24.0994 14.931C33.9461 14.5126 40.897 24.6749 36.9212 33.7228C32.7326 43.2539 19.6981 44.5503 13.6848 36.0397C7.56326 27.3759 13.5694 15.3763 24.0994 14.931ZM36.6615 29.0023C35.9205 29.1249 35.6302 28.0647 36.2342 27.7347C36.346 27.6734 36.6255 27.6644 36.6453 27.5616C36.4488 24.9039 35.4048 22.3164 33.6089 20.3565C32.8787 20.9461 32.0078 20.1293 32.6244 19.372C30.6645 17.5779 28.0734 16.5267 25.4175 16.3356C25.3021 16.3572 25.3273 16.9721 24.8134 17.0532C24.213 17.1488 24.076 16.808 23.8812 16.3356C21.2235 16.5321 18.6342 17.5761 16.6743 19.372C17.2891 20.1257 16.4254 20.9479 15.6898 20.3565C13.8939 22.3164 12.8481 24.9075 12.6534 27.5616C12.675 27.677 13.2899 27.6518 13.371 28.1656C13.4522 28.6795 13.1474 29.0005 12.6354 29.0347C12.7309 29.6965 12.7904 30.36 12.9383 31.0145C13.3782 32.9637 14.3537 34.8335 15.6898 36.303C16.4363 35.6629 17.2837 36.5248 16.6743 37.2875C18.6342 39.0834 21.2271 40.1255 23.8812 40.3239C23.9966 40.3023 23.9714 39.6874 24.4853 39.6063C25.0857 39.5107 25.2227 39.8515 25.4175 40.3239C28.0788 40.1237 30.6609 39.087 32.6244 37.2875C32.015 36.523 32.8624 35.6629 33.6089 36.303C35.439 34.3106 36.4578 31.6961 36.6615 29.0005V29.0023Z" fill="white"/>
<path d="M24.5682 17.9457C25.4157 17.8989 26.0107 18.5516 26.173 19.3251C26.5751 21.2292 26.5949 23.355 26.9988 25.2771C27.0889 25.5223 27.3738 25.681 27.5325 25.8847C28.7171 27.3975 28.7189 29.2746 27.5433 30.7928C27.5181 31.0668 28.7893 31.6853 28.2718 32.0567C27.9166 32.2352 27.4802 31.3968 27.1989 31.2489C27.1106 31.2021 27.0907 31.2003 27.0312 31.285L26.0774 37.7112C25.3688 39.206 23.4683 38.9698 23.124 37.338C22.7219 35.4321 22.7002 33.3099 22.2981 31.386C21.9664 30.9334 21.5715 30.6106 21.3028 30.1004C20.587 28.7336 20.7944 27.0604 21.7536 25.8703C21.777 25.6053 20.605 25.0553 21.1369 24.7127C21.4435 24.5162 21.8564 25.2861 22.098 25.4123C22.1863 25.4592 22.2062 25.461 22.2657 25.3763L23.2375 18.8996C23.4323 18.4019 24.0327 17.9746 24.57 17.9439L24.5682 17.9457ZM25.5221 24.6406L24.79 19.5018L24.6169 19.3413L24.4655 19.6605L23.7767 24.6424C24.3464 24.5396 24.9487 24.5396 25.5203 24.6424L25.5221 24.6406ZM24.3663 25.9352C21.3281 26.2652 21.6977 30.9406 24.817 30.7459C27.9923 30.5475 27.6479 25.58 24.3663 25.9352ZM25.5221 32.0225C24.9433 32.1198 24.3537 32.1198 23.7785 32.0225L24.4673 37.0044L24.6187 37.3236L24.7918 37.1631L25.5239 32.0243L25.5221 32.0225Z" fill="white"/>
<path d="M18.6272 22.3094C18.6686 22.2679 18.7894 22.2228 18.8471 22.2282C18.9283 22.2354 19.9362 23.1947 19.9849 23.2993C20.1417 23.64 19.8911 23.8186 19.5792 23.6364C19.5161 23.5986 18.6037 22.6898 18.5749 22.6249C18.5316 22.5257 18.5532 22.3851 18.6272 22.3094Z" fill="white"/>
<path d="M29.4313 33.1133C29.4728 33.0719 29.5936 33.0268 29.6513 33.0322C29.7325 33.0394 30.7404 33.9986 30.7891 34.1032C30.946 34.444 30.6953 34.6225 30.3834 34.4404C30.3203 34.4025 29.4079 33.4938 29.3791 33.4289C29.3358 33.3297 29.3574 33.1891 29.4313 33.1133Z" fill="white"/>
<path opacity="0.1" d="M45.1465 38.63L8.23542 15.1357L6.48281 16.2284C6.40527 16.2771 6.33135 16.3276 6.25562 16.3799L45.1393 41.1291C45.1411 41.0588 45.1465 40.9885 45.1465 40.9181V38.63Z" fill="white"/>
<path opacity="0.1" d="M45.1466 36.9874V28.9185L15.9438 10.3323L9.94849 14.0683L45.1466 36.9874Z" fill="white"/>
<g opacity="0.1">
<path d="M3.92603 29.0936V40.1772L27.0092 55.2078C27.1444 55.1393 27.2761 55.0653 27.4059 54.9842L36.0968 49.5677L3.92783 29.0918L3.92603 29.0936Z" fill="white"/>
</g>
</svg>
