<svg width="410" height="108" viewBox="0 0 410 108" fill="none" xmlns="http://www.w3.org/2000/svg">
<g opacity="0.5">
<g clip-path="url(#clip0_1887_18800)">
<path d="M79.2502 68.62L84.0202 61.98C84.5602 61.23 84.3802 60.19 83.6302 59.65C83.2602 59.38 82.8102 59.29 82.3502 59.37C79.2002 59.99 72.6402 60.13 64.2102 54.07L62.3002 52.7L58.5502 50.01C55.8902 48.1 52.1602 48.71 50.2502 51.37L45.7302 57.66C43.9602 60.13 44.3502 63.5 46.5302 65.5L40.3802 82.23C40.2402 82.62 40.3802 83.06 40.7102 83.31L47.4102 88.12H47.4202C47.8402 88.43 48.4202 88.33 48.7202 87.91C48.8002 87.8 48.8502 87.67 48.8802 87.54L54.7502 71.56C61.5302 77.14 63.1902 82.65 63.5702 85.52C63.6302 85.98 63.8702 86.38 64.2402 86.65C64.9902 87.19 66.0302 87.02 66.5702 86.27L71.3402 79.63C74.1202 79.96 76.9002 78.76 78.5502 76.46C80.2002 74.16 80.4502 71.15 79.2502 68.62ZM47.2402 58.75L51.7602 52.46C53.0702 50.63 55.6302 50.21 57.4602 51.52L60.4602 53.67L51.1802 66.6L48.1802 64.45C46.3502 63.14 45.9302 60.58 47.2402 58.75ZM42.3802 82.21L48.0902 66.68L50.8502 68.66L52.7602 70.03C52.9102 70.14 53.0702 70.25 53.2202 70.36L47.5102 85.89L42.3802 82.21ZM65.3502 84.79C64.7902 81.4 62.6802 75.33 55.0402 69.41C54.9902 69.35 54.9402 69.3 54.8802 69.26L52.6902 67.69L61.9702 54.76L63.1202 55.59C71.7302 61.77 78.6202 61.89 82.2202 61.29L77.4002 68L70.1602 78.08L65.3402 84.79H65.3502ZM72.6502 77.81L77.9402 70.44C78.3802 72.11 78.0702 73.93 77.0402 75.38C76.0102 76.83 74.3802 77.7 72.6502 77.82" fill="white"/>
<path d="M89.3097 83.05L80.9797 77.07C80.5597 76.77 79.9797 76.86 79.6797 77.28C79.3797 77.7 79.4797 78.28 79.8897 78.58L88.2197 84.56C88.6397 84.86 89.2197 84.77 89.5197 84.35C89.8197 83.93 89.7197 83.35 89.3097 83.05Z" fill="#F90A88"/>
<path d="M82.1797 73.74C82.3697 73.88 82.6197 73.94 82.8697 73.9L92.9897 72.24C93.4997 72.16 93.8397 71.68 93.7597 71.17C93.6797 70.66 93.1997 70.32 92.6897 70.4L82.5697 72.06C82.0597 72.14 81.7197 72.62 81.7997 73.13C81.8397 73.38 81.9797 73.6 82.1797 73.74Z" fill="#F90A88"/>
<path d="M77.5001 81.38C77.4201 80.87 76.9401 80.53 76.4301 80.61C75.9201 80.69 75.5801 81.17 75.6601 81.68L77.3201 91.8C77.3601 92.05 77.5001 92.27 77.7001 92.41C77.9001 92.55 78.1401 92.61 78.3901 92.57C78.9001 92.49 79.2401 92.01 79.1601 91.5L77.5001 81.38Z" fill="#F90A88"/>
<path d="M368.58 45.45L366.4 39.15C366.15 38.44 365.38 38.06 364.67 38.31C364.32 38.43 364.04 38.69 363.88 39.03C362.81 41.42 359.82 45.85 351.82 48.61L350.01 49.24L346.45 50.47C343.92 51.34 342.58 54.11 343.45 56.64L345.51 62.61C346.32 64.95 348.75 66.27 351.11 65.76L359.36 77.72C359.55 78 359.91 78.12 360.23 78.01L366.58 75.81C366.98 75.67 367.19 75.24 367.05 74.84C367.01 74.73 366.95 74.64 366.88 74.56L359 63.13C365.9 61.24 370.36 62.73 372.44 63.83C372.78 64.01 373.16 64.04 373.51 63.91C374.22 63.66 374.6 62.89 374.35 62.18L372.17 55.88C373.7 54.18 374.21 51.77 373.45 49.59C372.69 47.41 370.81 45.83 368.56 45.44M346.95 62.12L344.89 56.15C344.29 54.41 345.21 52.51 346.95 51.91L349.79 50.93L354.03 63.19L351.19 64.17C349.45 64.77 347.55 63.85 346.95 62.11M360.28 76.39L352.62 65.28L355.24 64.38L357.05 63.75C357.2 63.7 357.34 63.65 357.49 63.6L365.14 74.7L360.28 76.38V76.39ZM372.8 62.32C370.28 61.1 365.25 59.64 357.71 61.95C357.65 61.95 357.59 61.97 357.53 61.99L355.46 62.71L351.22 50.45L352.31 50.07C360.47 47.25 363.79 42.71 365.09 40.04L367.29 46.41L370.59 55.97L372.79 62.33L372.8 62.32ZM371.59 54.17L369.17 47.18C370.49 47.67 371.56 48.73 372.03 50.1C372.5 51.47 372.32 52.97 371.59 54.17Z" fill="white"/>
<path d="M382.92 45.54L375.02 48.27C374.62 48.41 374.41 48.84 374.55 49.24C374.69 49.64 375.12 49.85 375.52 49.71L383.42 46.98C383.82 46.84 384.03 46.41 383.89 46.01C383.75 45.61 383.32 45.4 382.92 45.54Z" fill="#F90A88"/>
<path d="M373.359 45.91C373.539 45.85 373.699 45.71 373.799 45.52L377.459 38C377.639 37.62 377.489 37.17 377.109 36.98C376.729 36.8 376.279 36.95 376.089 37.33L372.429 44.85C372.249 45.23 372.399 45.68 372.779 45.87C372.969 45.96 373.179 45.97 373.359 45.9" fill="#F90A88"/>
<path d="M376.25 52.62C375.87 52.44 375.42 52.59 375.23 52.97C375.05 53.35 375.2 53.8 375.58 53.99L383.1 57.65C383.29 57.74 383.5 57.75 383.68 57.69C383.86 57.63 384.02 57.49 384.11 57.3C384.29 56.92 384.14 56.47 383.76 56.28L376.24 52.62H376.25Z" fill="#F90A88"/>
<path d="M101.13 55.37C101.69 55.12 102.15 54.75 102.5 54.3C103.48 55.58 105.25 56.08 106.83 55.38C107.39 55.13 107.86 54.75 108.21 54.3C109.19 55.56 110.95 56.05 112.52 55.35C113.04 55.12 113.48 54.78 113.82 54.37L116.28 59.94C117.08 61.75 119.19 62.57 121.05 61.75C122.91 60.93 123.67 58.84 122.87 57.03L116.8 43.3C121.17 43.78 122.59 42.29 122.98 40.85C123.66 38.35 121.19 35.07 118.81 34.25C113.36 32.14 106.14 23.64 106.07 23.56C105.79 23.22 105.31 23.11 104.91 23.29L90.6097 29.61C90.1197 29.83 89.8896 30.39 90.0896 30.88C91.5396 34.61 92.9497 45.61 92.9697 45.72C92.9697 45.78 92.9897 45.84 93.0097 45.9V45.92C93.0097 45.94 93.0196 45.97 93.0296 45.99L96.3796 53.56C97.1796 55.36 99.2897 56.18 101.15 55.36M92.2297 31.06L105.02 25.4C106.79 27.42 112.96 34.12 118.11 36.11C119.71 36.66 121.38 39.06 121.04 40.32C120.76 41.35 118.78 41.66 115.84 41.14L113.9 36.75C113.68 36.25 113.09 36.02 112.59 36.24C112.09 36.46 111.86 37.05 112.08 37.55L121.04 57.82C121.39 58.62 121.04 59.56 120.19 59.94C119.39 60.29 118.45 59.93 118.1 59.13L114.34 50.63L112.26 45.92C112.04 45.42 111.45 45.19 110.95 45.41C110.45 45.63 110.22 46.22 110.44 46.72L112.52 51.43C112.87 52.23 112.52 53.17 111.66 53.54C110.86 53.89 109.92 53.54 109.57 52.73L108.65 50.65L107.03 46.98C106.81 46.48 106.22 46.25 105.72 46.47C105.22 46.69 104.99 47.28 105.21 47.78L106.83 51.45C107.18 52.25 106.82 53.19 105.97 53.56C105.17 53.91 104.23 53.56 103.88 52.75L102.94 50.63L101.75 47.93C101.53 47.43 100.94 47.2 100.44 47.42C99.9397 47.64 99.7096 48.23 99.9296 48.73L101.12 51.43C101.47 52.23 101.12 53.16 100.26 53.54C99.4597 53.89 98.5196 53.54 98.1696 52.74L94.8896 45.32C94.7296 44.11 93.5697 35.32 92.2197 31.04" fill="white"/>
<path d="M110.749 59.68C110.209 59.83 109.899 60.38 110.039 60.91C110.169 61.41 110.349 61.9 110.549 62.36C112.739 67.31 118.549 69.56 123.499 67.37C128.449 65.18 130.689 59.37 128.499 54.42C127.959 53.19 127.189 52.11 126.209 51.21C125.909 50.93 125.479 50.87 125.119 51.03C124.999 51.08 124.889 51.16 124.789 51.27C124.409 51.68 124.439 52.31 124.849 52.69C125.619 53.4 126.229 54.26 126.669 55.24C128.409 59.18 126.629 63.8 122.689 65.54C118.749 67.28 114.129 65.49 112.389 61.56C112.229 61.19 112.089 60.8 111.979 60.4C111.839 59.86 111.279 59.55 110.749 59.69" fill="white"/>
<path d="M133.25 52.3301C136.6 59.9001 133.16 68.7801 125.6 72.1201C118.04 75.4601 109.15 72.0301 105.81 64.4601C105.29 63.2801 104.92 62.0401 104.72 60.7801C104.63 60.2301 104.12 59.8601 103.57 59.9501C103.02 60.0401 102.65 60.5501 102.74 61.1001C102.97 62.5301 103.39 63.9401 103.98 65.2701C107.77 73.8501 117.84 77.7501 126.42 73.9501C135 70.1601 138.89 60.0901 135.1 51.5101C133.65 48.2201 131.25 45.5301 128.16 43.7301C127.87 43.5601 127.53 43.5501 127.25 43.6801C127.06 43.7601 126.9 43.9001 126.79 44.0901C126.51 44.5701 126.67 45.1801 127.15 45.4601C129.87 47.0501 131.98 49.4201 133.26 52.3201" fill="#F90A88"/>
<path d="M129.36 80.6101C141.61 75.2001 147.16 60.8201 141.75 48.5701C139.42 43.3101 135.3 39.0401 130.14 36.5401C129.86 36.4101 129.56 36.4101 129.3 36.5301C129.09 36.6201 128.91 36.7901 128.8 37.0101C128.56 37.5101 128.77 38.1101 129.27 38.3501C134.01 40.6401 137.79 44.5601 139.92 49.3801C144.89 60.6201 139.79 73.8001 128.56 78.7601C117.32 83.7301 104.14 78.6301 99.1699 67.3901C98.2799 65.3701 97.6899 63.2501 97.4299 61.0901C97.3599 60.5401 96.8599 60.1501 96.3099 60.2201C95.7599 60.2901 95.3699 60.7901 95.4299 61.3401C95.7199 63.7001 96.3599 66.0101 97.3299 68.2101C102.75 80.4601 117.12 86.0201 129.37 80.6001" fill="white"/>
<path d="M284.33 71L254.35 80.87C253.78 81.06 253.21 80.59 253.27 80L256.6 48.95C256.67 48.3 257.43 47.99 257.94 48.39L284.59 69.58C285.1 69.99 284.96 70.81 284.33 71.01V71Z" stroke="white" stroke-width="2.26" stroke-linecap="round" stroke-linejoin="round"/>
<path d="M276.73 68.16L255.3 60.05C255.17 60 255.02 60.01 254.9 60.09L248.26 64.27C247.9 64.49 248.02 65.04 248.44 65.1L276.51 69.03C277.04 69.1 277.24 68.35 276.73 68.16Z" stroke="white" stroke-width="2.26" stroke-linecap="round" stroke-linejoin="round"/>
<path d="M254.49 68.65L248.18 64.98" stroke="white" stroke-width="2.26" stroke-linecap="round" stroke-linejoin="round"/>
<path d="M195.82 99.96L196.41 99.07C202.24 90.12 203.08 83.44 198.85 79.71C197.41 78.3 195.5 77.46 193.48 77.35L183.76 68.92C183.36 66.94 182.26 65.17 180.66 63.94C176.36 60.27 169.87 62.06 161.83 69.09L161.04 69.8C158.5 71.97 154.99 74.95 155.03 78C155.05 79.18 155.6 80.28 156.52 81.02L156.62 81.11C160.42 84.25 165.17 82.66 168.97 81.37C169.69 81.13 170.4 80.89 171.08 80.69C171.67 80.48 171.97 79.84 171.77 79.26C171.58 78.72 171.01 78.41 170.45 78.54C169.75 78.73 169.01 78.99 168.25 79.25C164.64 80.46 160.9 81.72 158.07 79.38C157.6 79.06 157.31 78.55 157.28 77.98C157.26 75.97 160.54 73.19 162.5 71.52L163.33 70.81C168.25 66.47 175.01 62.08 179.19 65.65C180.33 66.54 181.15 67.77 181.53 69.17L178.99 72.24C178.61 72.71 178.66 73.41 179.12 73.81L189.32 82.66C189.79 83.07 190.5 83.02 190.91 82.55L193.46 79.61C194.95 79.72 196.34 80.37 197.39 81.44C201.51 85.07 198.12 92.38 194.52 97.87L193.93 98.79C192.55 100.96 190.26 104.6 188.27 104.87C187.71 104.94 187.15 104.72 186.78 104.29C184.07 101.82 184.78 97.94 185.47 94.19C185.62 93.4 185.77 92.64 185.87 91.91C185.93 91.29 185.47 90.74 184.85 90.69C184.28 90.64 183.76 91.03 183.65 91.59C183.56 92.28 183.42 93.03 183.28 93.77C182.54 97.72 181.63 102.65 185.28 105.96L185.38 106.05C186.24 106.86 187.41 107.24 188.58 107.1C191.6 106.71 194.05 102.82 195.84 100L195.82 99.96ZM189.93 80.19L181.41 72.8L182.84 71.09L191.39 78.51L189.93 80.19Z" fill="white"/>
<path d="M171.06 72.76C171.53 73.17 172.24 73.12 172.65 72.65L173.39 71.8001L174.24 72.54C174.71 72.95 175.42 72.9 175.83 72.43C176.24 71.96 176.19 71.25 175.72 70.84L174.87 70.1L175.61 69.25C176.02 68.78 175.97 68.0701 175.5 67.6601C175.03 67.2501 174.32 67.3 173.91 67.77L173.17 68.62L172.32 67.88C171.85 67.47 171.14 67.52 170.73 67.99C170.32 68.46 170.37 69.17 170.84 69.58L171.69 70.32L170.95 71.17C170.54 71.64 170.59 72.35 171.06 72.76Z" fill="white"/>
<path d="M194.63 90.23C194.74 90.33 194.87 90.4 195.01 90.44C195.15 90.49 195.3 90.51 195.44 90.49C195.59 90.49 195.74 90.45 195.86 90.38C196 90.32 196.11 90.23 196.21 90.12C196.41 89.9 196.5 89.6 196.47 89.3C196.43 88.85 196.13 88.47 195.71 88.32C195.57 88.26 195.42 88.25 195.28 88.27C194.98 88.28 194.7 88.42 194.51 88.65C194.12 89.12 194.17 89.82 194.62 90.24L194.63 90.23Z" fill="white"/>
<path d="M192.33 84.81C192.33 84.96 192.37 85.1 192.44 85.23C192.5 85.37 192.59 85.49 192.7 85.58C192.92 85.78 193.22 85.87 193.52 85.84C193.67 85.84 193.82 85.8 193.94 85.73C194.07 85.67 194.19 85.58 194.29 85.47C194.49 85.25 194.58 84.95 194.55 84.65C194.5 84.04 193.97 83.58 193.36 83.62C193.06 83.63 192.78 83.77 192.59 84C192.49 84.11 192.42 84.24 192.38 84.38C192.32 84.52 192.31 84.67 192.33 84.82V84.81Z" fill="white"/>
<path d="M188.83 88.84C188.83 88.99 188.87 89.13 188.94 89.26C189 89.4 189.09 89.52 189.2 89.61C189.42 89.81 189.72 89.9 190.02 89.87C190.17 89.87 190.32 89.83 190.44 89.76C190.57 89.7 190.69 89.61 190.79 89.5C190.99 89.28 191.08 88.98 191.05 88.68C191 88.07 190.47 87.61 189.86 87.65C189.56 87.66 189.28 87.8 189.09 88.03C188.99 88.14 188.92 88.27 188.88 88.41C188.82 88.55 188.81 88.7 188.83 88.85V88.84Z" fill="white"/>
<path d="M178.16 78.92C176.75 77.7 174.62 77.85 173.4 79.26C172.18 80.67 172.33 82.8 173.74 84.02C175.15 85.24 177.28 85.09 178.5 83.68C179.72 82.27 179.57 80.14 178.16 78.92ZM175.21 82.32C174.74 81.91 174.69 81.2 175.1 80.73C175.51 80.26 176.22 80.21 176.69 80.62C177.16 81.03 177.21 81.74 176.8 82.21C176.39 82.68 175.68 82.73 175.21 82.32Z" fill="#F90A88"/>
<path d="M184.66 84.56C183.25 83.34 181.12 83.49 179.9 84.9C178.68 86.31 178.83 88.44 180.24 89.66C181.65 90.88 183.78 90.73 185 89.32C186.22 87.91 186.07 85.78 184.66 84.56ZM181.71 87.96C181.24 87.55 181.19 86.84 181.6 86.37C182.01 85.9 182.72 85.85 183.19 86.26C183.66 86.67 183.71 87.38 183.3 87.85C182.89 88.32 182.18 88.37 181.71 87.96Z" fill="#F90A88"/>
<path d="M146.08 102.99C146.08 104.84 147.58 106.34 149.43 106.34C151.28 106.34 152.78 104.84 152.78 102.99V84.62C152.78 82.7698 151.28 81.27 149.43 81.27C147.58 81.27 146.08 82.7698 146.08 84.62V102.99Z" fill="#F90A88"/>
<path d="M158.6 97.16C160.45 97.16 161.95 95.6601 161.95 93.81C161.95 91.9598 160.45 90.46 158.6 90.46H140.23C138.38 90.46 136.88 91.9598 136.88 93.81C136.88 95.6601 138.38 97.16 140.23 97.16H158.6Z" fill="#F90A88"/>
<path d="M288.48 90.1488C288.149 91.0157 288.582 91.9857 289.447 92.3153C290.311 92.6448 291.28 92.2092 291.61 91.3422L294.877 82.7738C295.208 81.9069 294.775 80.9369 293.91 80.6074C293.046 80.2778 292.077 80.7135 291.747 81.5804L288.48 90.1488Z" fill="white"/>
<path d="M295.378 89.6596C296.245 89.9902 297.215 89.5574 297.545 88.693C297.874 87.8286 297.439 86.86 296.572 86.5294L288.003 83.2626C287.136 82.9321 286.167 83.3648 285.837 84.2292C285.507 85.0936 285.943 86.0623 286.81 86.3928L295.378 89.6596Z" fill="white"/>
<path d="M3.52005 73.9575C3.1895 74.8245 3.62227 75.7944 4.48665 76.124C5.35104 76.4535 6.31971 76.0179 6.65026 75.1509L9.91706 66.5826C10.2476 65.7156 9.81483 64.7456 8.95045 64.4161C8.08607 64.0865 7.11739 64.5222 6.78685 65.3891L3.52005 73.9575Z" fill="#F90A88"/>
<path d="M10.4077 73.4703C11.2747 73.8009 12.2446 73.3681 12.5742 72.5037C12.9037 71.6393 12.4681 70.6706 11.6011 70.3401L3.03276 67.0733C2.16579 66.7428 1.19582 67.1755 0.866262 68.0399C0.536704 68.9043 0.972359 69.873 1.83932 70.2035L10.4077 73.4703Z" fill="#F90A88"/>
<path d="M219.399 96.2855C219.068 97.1525 219.501 98.1224 220.366 98.452C221.23 98.7815 222.199 98.3459 222.529 97.4789L225.796 88.9106C226.127 88.0436 225.694 87.0736 224.829 86.7441C223.965 86.4145 222.996 86.8502 222.666 87.7171L219.399 96.2855Z" fill="white"/>
<path d="M226.286 95.7916C227.153 96.1221 228.123 95.6894 228.452 94.825C228.782 93.9606 228.346 92.9919 227.479 92.6614L218.911 89.3946C218.044 89.064 217.074 89.4968 216.744 90.3612C216.415 91.2256 216.85 92.1943 217.717 92.5248L226.286 95.7916Z" fill="white"/>
<path d="M18.5904 86.8545C18.2598 87.7214 18.6926 88.6914 19.557 89.021C20.4213 89.3505 21.39 88.9149 21.7206 88.0479L24.9874 79.4795C25.3179 78.6126 24.8851 77.6426 24.0208 77.313C23.1564 76.9835 22.1877 77.4191 21.8572 78.2861L18.5904 86.8545Z" fill="white"/>
<path d="M25.4848 86.3595C26.3518 86.69 27.3218 86.2572 27.6513 85.3929C27.9809 84.5285 27.5452 83.5598 26.6783 83.2293L18.1099 79.9625C17.2429 79.6319 16.273 80.0647 15.9434 80.9291C15.6139 81.7934 16.0495 82.7621 16.9165 83.0927L25.4848 86.3595Z" fill="white"/>
<path d="M27.7498 67.07C33.9574 67.07 38.9898 62.0376 38.9898 55.83C38.9898 49.6223 33.9574 44.59 27.7498 44.59C21.5421 44.59 16.5098 49.6223 16.5098 55.83C16.5098 62.0376 21.5421 67.07 27.7498 67.07Z" stroke="white" stroke-width="2.26" stroke-linecap="round" stroke-linejoin="round"/>
<path d="M396.87 78.97C403.078 78.97 408.11 73.9377 408.11 67.73C408.11 61.5223 403.078 56.49 396.87 56.49C390.662 56.49 385.63 61.5223 385.63 67.73C385.63 73.9377 390.662 78.97 396.87 78.97Z" stroke="white" stroke-width="2.26" stroke-linecap="round" stroke-linejoin="round"/>
<path d="M321 85.48C332.582 85.48 341.97 76.0915 341.97 64.51C341.97 52.9286 332.582 43.54 321 43.54C309.419 43.54 300.03 52.9286 300.03 64.51C300.03 76.0915 309.419 85.48 321 85.48Z" stroke="white" stroke-width="2.26" stroke-linecap="round" stroke-linejoin="round"/>
<path d="M216.18 78.92C231.627 78.92 244.15 66.3974 244.15 50.95C244.15 35.5026 231.627 22.98 216.18 22.98C200.733 22.98 188.21 35.5026 188.21 50.95C188.21 66.3974 200.733 78.92 216.18 78.92Z" stroke="white" stroke-width="2.26" stroke-linecap="round" stroke-linejoin="round"/>
<path d="M341.97 47.69C348.178 47.69 353.21 42.6576 353.21 36.45C353.21 30.2423 348.178 25.21 341.97 25.21C335.763 25.21 330.73 30.2423 330.73 36.45C330.73 42.6576 335.763 47.69 341.97 47.69Z" fill="#F90A88"/>
<path d="M294.14 62.7301L299.5 34.9701C299.96 32.5901 297.67 30.6001 295.37 31.3901L268.65 40.6201C266.36 41.4101 265.78 44.3901 267.61 45.9801L288.97 64.5001C290.8 66.0901 293.67 65.1001 294.13 62.7201L294.14 62.7301Z" fill="#F90A88"/>
<path d="M156.82 64.91L180.52 49.49C182.56 48.17 182.39 45.1399 180.23 44.0399L155.03 31.2299C152.87 30.1299 150.32 31.7799 150.45 34.2099L151.95 62.4399C152.08 64.8599 154.78 66.2399 156.82 64.9199V64.91Z" fill="#F90A88"/>
</g>
</g>
<defs>
<clipPath id="clip0_1887_18800">
<rect width="408.5" height="107.09" fill="white" transform="translate(0.75)"/>
</clipPath>
</defs>
</svg>
