<svg width="439" height="492" viewBox="0 0 439 492" fill="none" xmlns="http://www.w3.org/2000/svg">
<g opacity="0.4">
<g clip-path="url(#clip0_1887_17230)">
<path d="M148.108 346.379L153.278 333.698C153.858 332.268 155.47 331.598 156.867 332.191C157.558 332.488 158.085 333.051 158.36 333.781C160.21 338.84 165.655 348.341 181.39 355.066L184.949 356.587C184.949 356.587 184.949 356.587 184.956 356.587L191.947 359.577C196.917 361.699 199.272 367.572 197.192 372.653L192.289 384.665C190.372 389.374 185.32 391.777 180.64 390.431L162.55 413.982C162.127 414.538 161.391 414.728 160.76 414.462L148.271 409.121H148.249C147.469 408.779 147.105 407.866 147.424 407.067C147.513 406.854 147.64 406.664 147.803 406.52L165.076 384.026C151.436 379.249 142.306 381.728 137.974 383.714C137.276 384.033 136.511 384.049 135.813 383.752C134.416 383.159 133.755 381.508 134.334 380.085L139.505 367.404C136.645 363.715 135.931 358.679 137.722 354.29C139.512 349.901 143.509 346.888 148.078 346.379M189.473 383.478L194.377 371.467C195.803 367.975 194.183 363.943 190.773 362.483L185.187 360.094L175.12 384.779L180.707 387.167C184.117 388.628 188.054 386.97 189.481 383.478M160.878 411.13L177.668 389.267L172.527 387.069L168.969 385.547C168.679 385.425 168.397 385.304 168.107 385.182L151.317 407.045L160.878 411.13ZM137.492 380.542C142.707 378.351 153.011 376.016 167.862 381.728C167.981 381.744 168.1 381.782 168.211 381.827L172.29 383.569L182.356 358.885L180.209 357.964C164.162 351.103 158.063 341.335 155.79 335.66L150.559 348.478L142.707 367.732L137.484 380.542H137.492ZM140.946 363.936L146.689 349.863C143.97 350.707 141.696 352.753 140.567 355.507C139.438 358.261 139.616 361.364 140.946 363.936Z" fill="white"/>
<path d="M119.283 344.705L134.818 351.346C135.598 351.681 135.962 352.594 135.642 353.392C135.323 354.191 134.424 354.564 133.644 354.237L118.109 347.596C117.329 347.261 116.958 346.348 117.285 345.549C117.612 344.751 118.503 344.378 119.283 344.705Z" fill="#F90A88"/>
<path d="M138.442 346.706C138.078 346.554 137.773 346.257 137.617 345.854L131.221 329.909C130.901 329.111 131.273 328.198 132.053 327.863C132.833 327.536 133.725 327.916 134.051 328.715L140.448 344.659C140.767 345.458 140.396 346.371 139.616 346.706C139.222 346.873 138.806 346.858 138.442 346.706Z" fill="#F90A88"/>
<path d="M131.793 360.132C132.573 359.805 133.465 360.185 133.792 360.984C134.111 361.783 133.74 362.696 132.96 363.03L117.388 369.58C116.994 369.747 116.578 369.732 116.214 369.58C115.85 369.428 115.553 369.131 115.39 368.728C115.07 367.929 115.442 367.016 116.222 366.682L131.793 360.132Z" fill="#F90A88"/>
<path d="M214.82 398.928C215.734 399.339 216.492 399.97 217.072 400.723C218.676 398.563 221.588 397.726 224.189 398.898C225.11 399.316 225.882 399.947 226.462 400.716C228.082 398.593 230.957 397.779 233.535 398.943C234.389 399.331 235.102 399.902 235.659 400.594L239.701 391.23C241.008 388.194 244.485 386.818 247.524 388.187C250.562 389.556 251.825 393.086 250.51 396.121L240.54 419.208C247.709 418.402 250.042 420.905 250.681 423.324C251.788 427.523 247.746 433.045 243.831 434.422C234.894 437.96 223.03 452.253 222.911 452.39C222.443 452.961 221.663 453.143 221.002 452.839L197.518 442.212C196.723 441.847 196.337 440.911 196.656 440.074C199.041 433.799 201.351 415.313 201.374 415.123C201.374 415.123 201.374 415.116 201.374 415.108C201.389 415.009 201.411 414.91 201.441 414.811C201.441 414.796 201.448 414.789 201.455 414.773C201.47 414.735 201.478 414.69 201.493 414.652L206.983 401.933C208.29 398.905 211.767 397.528 214.813 398.913M200.215 439.785L221.217 449.294C224.129 445.909 234.255 434.635 242.71 431.288C245.339 430.36 248.081 426.321 247.524 424.206C247.063 422.472 243.816 421.962 238.98 422.829L235.8 430.2C235.436 431.045 234.471 431.425 233.646 431.052C232.821 430.68 232.45 429.691 232.814 428.846L247.524 394.782C248.103 393.436 247.516 391.853 246.127 391.222C244.819 390.629 243.274 391.245 242.695 392.591L236.528 406.87L233.111 414.781C232.747 415.625 231.781 416.006 230.957 415.633C230.132 415.26 229.761 414.271 230.125 413.427L233.542 405.516C234.121 404.177 233.527 402.602 232.138 401.971C230.83 401.377 229.292 401.986 228.713 403.332L227.205 406.832L224.545 412.993C224.181 413.838 223.215 414.218 222.391 413.845C221.566 413.473 221.195 412.484 221.559 411.639L224.218 405.478C224.798 404.131 224.196 402.556 222.799 401.925C221.492 401.332 219.954 401.94 219.375 403.287L217.837 406.854L215.875 411.388C215.511 412.233 214.546 412.613 213.721 412.24C212.896 411.867 212.525 410.879 212.889 410.034L214.85 405.5C215.43 404.162 214.835 402.587 213.446 401.956C212.131 401.362 210.586 401.963 210.006 403.31L204.62 415.785C204.36 417.824 202.451 432.597 200.245 439.785" fill="white"/>
<path d="M230.623 391.686C229.739 391.435 229.226 390.515 229.456 389.617C229.679 388.78 229.962 387.959 230.296 387.175C233.892 378.853 243.423 375.072 251.558 378.754C259.678 382.428 263.363 392.196 259.775 400.518C258.883 402.587 257.62 404.405 256.016 405.919C255.518 406.39 254.812 406.489 254.225 406.223C254.025 406.132 253.839 406.002 253.683 405.828C253.066 405.143 253.103 404.078 253.772 403.439C255.035 402.237 256.038 400.792 256.751 399.149C259.611 392.53 256.677 384.764 250.221 381.843C243.765 378.921 236.172 381.919 233.312 388.537C233.045 389.161 232.814 389.822 232.636 390.492C232.398 391.389 231.492 391.922 230.615 391.686" fill="white"/>
<path d="M267.561 404.04C273.051 391.321 267.42 376.396 255.006 370.774C242.584 365.153 228.008 370.926 222.518 383.645C221.664 385.631 221.054 387.708 220.727 389.83C220.579 390.75 219.732 391.374 218.833 391.23C217.934 391.077 217.325 390.218 217.466 389.297C217.845 386.886 218.528 384.528 219.502 382.284C225.727 367.861 242.257 361.311 256.343 367.693C270.421 374.068 276.81 390.994 270.584 405.417C268.2 410.939 264.262 415.466 259.196 418.501C258.72 418.782 258.163 418.798 257.695 418.585C257.39 418.448 257.123 418.212 256.937 417.892C256.477 417.086 256.744 416.051 257.531 415.58C261.996 412.91 265.466 408.916 267.568 404.047" fill="#F90A88"/>
<path d="M261.164 356.504C281.268 365.602 290.391 389.761 281.498 410.346C277.679 419.193 270.911 426.374 262.435 430.566C261.982 430.794 261.476 430.786 261.045 430.588C260.704 430.429 260.407 430.155 260.228 429.782C259.835 428.945 260.176 427.934 260.993 427.53C268.764 423.681 274.975 417.094 278.474 408.984C286.631 390.096 278.266 367.945 259.827 359.592C241.381 351.239 219.747 359.813 211.59 378.701C210.126 382.094 209.16 385.654 208.722 389.282C208.611 390.21 207.786 390.864 206.887 390.75C205.981 390.636 205.342 389.792 205.453 388.871C205.929 384.908 206.976 381.029 208.573 377.332C217.466 356.739 241.054 347.398 261.164 356.504Z" fill="white"/>
<path d="M352.973 163.475L376.323 210.837C376.768 211.734 377.972 211.863 378.589 211.08L410.764 170.215C411.433 169.363 410.92 168.085 409.865 167.963L354.34 161.474C353.27 161.353 352.49 162.494 352.973 163.483V163.475Z" stroke="white" stroke-width="5" stroke-linecap="round" stroke-linejoin="round"/>
<path d="M365.098 169.142L399.383 184.973C399.598 185.071 399.747 185.262 399.799 185.497L402.659 198.361C402.815 199.053 402.043 199.563 401.485 199.137L364.34 170.451C363.634 169.903 364.288 168.777 365.09 169.15L365.098 169.142Z" stroke="white" stroke-width="5" stroke-linecap="round" stroke-linejoin="round"/>
<path d="M390.342 196.163L401.932 199.289" stroke="white" stroke-width="5" stroke-linecap="round" stroke-linejoin="round"/>
<path d="M318.904 371.056L318.228 369.405C311.623 352.784 312.336 341.487 320.33 336.672C323.094 334.801 326.437 334.025 329.72 334.489L348.018 323.672C349.274 320.53 351.599 317.959 354.563 316.437C362.632 311.759 372.542 316.772 383.299 330.936L384.362 332.359C387.779 336.756 392.504 342.788 391.486 347.801C391.078 349.741 389.852 351.392 388.143 352.312L387.95 352.426C380.855 356.405 373.694 352.251 367.966 348.912C366.888 348.28 365.804 347.657 364.786 347.124C363.902 346.599 363.605 345.435 364.125 344.538C364.6 343.701 365.618 343.374 366.48 343.769C367.557 344.317 368.649 344.971 369.801 345.648C375.246 348.805 380.885 352.069 386.174 349.117C387.021 348.744 387.653 347.984 387.876 347.063C388.522 343.754 384.109 338.11 381.479 334.732L380.372 333.294C373.79 324.562 364.266 315.167 356.421 319.716C354.303 320.811 352.595 322.591 351.555 324.775L354.697 330.647C355.173 331.552 354.861 332.678 354.006 333.196L334.809 344.545C333.925 345.07 332.796 344.758 332.283 343.853L329.089 338.186C326.66 337.897 324.208 338.528 322.195 339.951C314.424 344.629 317.611 357.774 321.704 367.975L322.366 369.679C323.911 373.703 326.474 380.443 329.594 381.523C330.478 381.812 331.451 381.637 332.179 381.044C337.32 377.834 337.38 371.2 337.432 364.795C337.432 363.441 337.432 362.133 337.499 360.908C337.603 359.866 338.509 359.113 339.519 359.219C340.456 359.318 341.176 360.124 341.184 361.091C341.117 362.262 341.109 363.532 341.102 364.81C341.065 371.558 340.998 379.986 334.081 384.292L333.888 384.406C332.254 385.463 330.24 385.722 328.405 385.114C323.658 383.508 320.924 376.305 318.911 371.071L318.904 371.056ZM334.549 340.316L350.574 330.837L348.806 327.559L332.714 337.075L334.542 340.316H334.549Z" fill="white"/>
<path d="M367.281 334.07C366.397 334.595 365.268 334.283 364.755 333.378L363.834 331.743L362.237 332.686C361.353 333.211 360.224 332.899 359.711 331.994C359.198 331.088 359.503 329.932 360.387 329.407L361.984 328.464L361.063 326.829C360.551 325.923 360.855 324.767 361.739 324.242C362.623 323.717 363.753 324.029 364.265 324.934L365.186 326.57L366.784 325.627C367.668 325.102 368.797 325.414 369.31 326.319C369.822 327.224 369.518 328.38 368.633 328.905L367.036 329.848L367.957 331.484C368.47 332.389 368.165 333.546 367.281 334.07Z" fill="white"/>
<path d="M323.845 355.378C323.637 355.507 323.407 355.591 323.161 355.606C322.924 355.652 322.678 355.629 322.448 355.545C322.21 355.499 321.98 355.393 321.802 355.226C321.601 355.089 321.438 354.898 321.326 354.685C321.074 354.252 321.014 353.735 321.156 353.255C321.356 352.533 321.95 351.993 322.678 351.878C322.916 351.833 323.161 351.848 323.392 351.932C323.867 352.046 324.276 352.358 324.521 352.799C325.004 353.704 324.707 354.845 323.845 355.385V355.378Z" fill="white"/>
<path d="M329.238 347.17C329.194 347.413 329.09 347.641 328.926 347.832C328.793 348.037 328.607 348.204 328.391 348.318C327.968 348.577 327.463 348.638 326.995 348.486C326.757 348.44 326.527 348.334 326.348 348.166C326.148 348.022 325.984 347.839 325.873 347.626C325.62 347.193 325.561 346.675 325.702 346.196C325.97 345.207 326.965 344.614 327.938 344.872C328.414 344.986 328.822 345.298 329.068 345.74C329.194 345.953 329.268 346.188 329.29 346.432C329.342 346.675 329.32 346.934 329.238 347.17Z" fill="white"/>
<path d="M333.621 354.936C333.577 355.18 333.473 355.408 333.309 355.598C333.175 355.804 332.99 355.971 332.774 356.085C332.351 356.344 331.846 356.405 331.378 356.253C331.14 356.207 330.91 356.1 330.731 355.933C330.531 355.788 330.367 355.606 330.256 355.393C330.003 354.959 329.944 354.442 330.085 353.963C330.352 352.974 331.348 352.381 332.321 352.639C332.797 352.753 333.205 353.065 333.45 353.506C333.577 353.719 333.651 353.955 333.673 354.199C333.725 354.442 333.703 354.701 333.621 354.936Z" fill="white"/>
<path d="M353.916 341.967C356.569 340.399 359.956 341.328 361.487 344.043C363.017 346.759 362.111 350.228 359.458 351.795C356.806 353.362 353.419 352.434 351.888 349.718C350.358 347.002 351.264 343.534 353.916 341.967ZM357.609 348.524C358.493 347.999 358.797 346.843 358.285 345.937C357.772 345.032 356.643 344.72 355.759 345.245C354.875 345.77 354.57 346.926 355.083 347.832C355.595 348.737 356.725 349.049 357.609 348.524Z" fill="#F90A88"/>
<path d="M341.688 349.201C344.34 347.634 347.728 348.562 349.258 351.277C350.789 353.993 349.882 357.462 347.23 359.029C344.578 360.596 341.19 359.668 339.66 356.952C338.129 354.237 339.036 350.768 341.688 349.201ZM345.38 355.75C346.264 355.226 346.569 354.069 346.056 353.164C345.544 352.259 344.414 351.947 343.53 352.472C342.646 352.997 342.342 354.153 342.854 355.058C343.367 355.963 344.496 356.275 345.38 355.75Z" fill="#F90A88"/>
<path d="M380.445 263.401H383.454C385.662 263.401 387.451 265.233 387.451 267.494V301.444C387.451 303.704 385.662 305.536 383.454 305.536H380.445C378.238 305.536 376.449 303.704 376.449 301.444V267.494C376.449 265.233 378.238 263.401 380.445 263.401Z" fill="#F90A88"/>
<path d="M402.525 282.928V286.009C402.525 288.269 400.736 290.102 398.529 290.102H365.372C363.165 290.102 361.375 288.269 361.375 286.009V282.928C361.375 280.668 363.165 278.836 365.372 278.836H398.529C400.736 278.836 402.525 280.668 402.525 282.928Z" fill="#F90A88"/>
<path d="M408.593 57.0259L408.6 57.0232C410.018 56.4694 411.606 57.1979 412.147 58.6504L417.517 73.0724C418.058 74.5249 417.347 76.1513 415.928 76.7051L415.921 76.7078C414.503 77.2616 412.914 76.533 412.373 75.0805L407.003 60.6585C406.463 59.2061 407.174 57.5797 408.593 57.0259Z" fill="white"/>
<path d="M421.876 63.1114L421.878 63.1185C422.419 64.571 421.707 66.1974 420.289 66.7512L406.204 72.2497C404.786 72.8035 403.197 72.075 402.657 70.6225L402.654 70.6154C402.113 69.1629 402.825 67.5365 404.243 66.9828L418.328 61.4842C419.746 60.9304 421.335 61.6589 421.876 63.1114Z" fill="white"/>
<path d="M56.1707 364.049L56.1776 364.046C57.5962 363.492 59.1845 364.221 59.7253 365.673L65.0953 380.095C65.6362 381.548 64.9247 383.174 63.5061 383.728L63.4992 383.731C62.0807 384.284 60.4924 383.556 59.9515 382.103L54.5815 367.681C54.0407 366.229 54.7522 364.603 56.1707 364.049Z" fill="#F90A88"/>
<path d="M69.4634 370.127L69.4661 370.134C70.0069 371.587 69.2954 373.213 67.8769 373.767L53.7921 379.266C52.3736 379.819 50.7852 379.091 50.2444 377.638L50.2418 377.631C49.7009 376.179 50.4125 374.552 51.831 373.999L65.9157 368.5C67.3343 367.946 68.9226 368.675 69.4634 370.127Z" fill="#F90A88"/>
<path d="M406.18 336.487L406.187 336.484C407.606 335.931 409.194 336.659 409.735 338.112L415.105 352.534C415.646 353.986 414.934 355.612 413.516 356.166L413.509 356.169C412.09 356.723 410.502 355.994 409.961 354.542L404.591 340.12C404.05 338.667 404.762 337.041 406.18 336.487Z" fill="white"/>
<path d="M419.467 342.559L419.47 342.566C420.011 344.018 419.299 345.645 417.881 346.199L403.796 351.697C402.378 352.251 400.789 351.522 400.248 350.07L400.246 350.063C399.705 348.61 400.416 346.984 401.835 346.43L415.92 340.932C417.338 340.378 418.926 341.106 419.467 342.559Z" fill="white"/>
<path d="M6.1121 396.518L6.11905 396.515C7.53756 395.961 9.12593 396.69 9.66675 398.143L15.0368 412.565C15.5776 414.017 14.8661 415.643 13.4476 416.197L13.4406 416.2C12.0221 416.754 10.4338 416.025 9.89296 414.573L4.52295 400.151C3.98213 398.698 4.69359 397.072 6.1121 396.518Z" fill="white"/>
<path d="M19.4029 402.593L19.4055 402.6C19.9463 404.053 19.2348 405.679 17.8163 406.233L3.73152 411.732C2.31302 412.285 0.724691 411.557 0.183865 410.104L0.181216 410.097C-0.359609 408.645 0.351874 407.019 1.77038 406.465L15.8552 400.966C17.2737 400.412 18.862 401.141 19.4029 402.593Z" fill="white"/>
<path d="M94.38 417.048C84.1882 417.048 75.926 408.588 75.926 398.152C75.926 387.716 84.1882 379.256 94.38 379.256C104.572 379.256 112.834 387.716 112.834 398.152C112.834 408.588 104.572 417.048 94.38 417.048Z" stroke="white" stroke-width="5" stroke-linecap="round" stroke-linejoin="round"/>
<path d="M376.45 92.2429C366.258 92.2429 357.996 83.7829 357.996 73.347C357.996 62.9111 366.258 54.4511 376.45 54.4511C386.642 54.4511 394.904 62.9111 394.904 73.347C394.904 83.7829 386.642 92.2429 376.45 92.2429Z" stroke="white" stroke-width="5" stroke-linecap="round" stroke-linejoin="round"/>
<path d="M444.723 269.776C425.714 269.776 410.304 253.997 410.304 234.532C410.304 215.068 425.714 199.289 444.723 199.289C463.733 199.289 479.143 215.068 479.143 234.532C479.143 253.997 463.733 269.776 444.723 269.776Z" stroke="white" stroke-width="5" stroke-linecap="round" stroke-linejoin="round"/>
<path d="M403.684 453.379C378.323 453.379 357.764 432.328 357.764 406.36C357.764 380.392 378.323 359.341 403.684 359.341C429.045 359.341 449.604 380.392 449.604 406.36C449.604 432.328 429.045 453.379 403.684 453.379Z" stroke="white" stroke-width="5" stroke-linecap="round" stroke-linejoin="round"/>
<path d="M410.296 131.906C400.104 131.906 391.842 123.446 391.842 113.01C391.842 102.574 400.104 94.1142 410.296 94.1142C420.488 94.1142 428.75 102.574 428.75 113.01C428.75 123.446 420.488 131.906 410.296 131.906Z" fill="#F90A88"/>
<path d="M411.07 26.7159C403.865 26.7159 398.024 20.7353 398.024 13.3579C398.024 5.98056 403.865 0 411.07 0C418.275 0 424.115 5.98056 424.115 13.3579C424.115 20.7353 418.275 26.7159 411.07 26.7159Z" fill="#F90A88"/>
<path d="M450.131 286.146L458.117 328.487C459.054 333.454 454.388 337.592 449.723 335.942L409.917 321.854C405.252 320.203 404.078 313.995 407.807 310.686L439.626 282.426C443.356 279.11 449.188 281.179 450.131 286.138V286.146Z" fill="#F90A88"/>
<path d="M308.042 384.087L343.345 407.608C347.483 410.361 347.156 416.675 342.758 418.965L305.219 438.515C300.821 440.805 295.642 437.359 295.902 432.308L298.139 389.244C298.399 384.193 303.904 381.333 308.042 384.087Z" fill="#F90A88"/>
</g>
</g>
<defs>
<clipPath id="clip0_1887_17230">
<rect width="481" height="492" fill="white" transform="matrix(-1 0 0 1 481 0)"/>
</clipPath>
</defs>
</svg>
