<svg width="492" height="492" viewBox="0 0 492 492" fill="none" xmlns="http://www.w3.org/2000/svg">
<g opacity="0.4">
<g clip-path="url(#clip0_1887_17229)">
<path d="M340.505 346.379L335.216 333.698C334.623 332.268 332.974 331.598 331.545 332.191C330.839 332.488 330.299 333.051 330.018 333.781C328.126 338.84 322.556 348.341 306.461 355.066L302.821 356.587C302.821 356.587 302.821 356.587 302.813 356.587L295.663 359.577C290.579 361.699 288.17 367.572 290.298 372.653L295.313 384.665C297.274 389.374 302.441 391.777 307.228 390.431L325.732 413.982C326.165 414.538 326.918 414.728 327.564 414.462L340.338 409.121H340.36C341.158 408.779 341.531 407.866 341.204 407.067C341.113 406.854 340.983 406.664 340.816 406.52L323.148 384.026C337.1 379.249 346.44 381.728 350.87 383.714C351.584 384.033 352.367 384.049 353.081 383.752C354.51 383.159 355.186 381.508 354.593 380.085L349.304 367.404C352.23 363.715 352.96 358.679 351.128 354.29C349.297 349.901 345.209 346.888 340.535 346.379M298.193 383.478L293.178 371.467C291.719 367.975 293.375 363.943 296.863 362.483L302.578 360.094L312.875 384.779L307.16 387.167C303.672 388.628 299.645 386.97 298.186 383.478M327.442 411.13L310.268 389.267L315.527 387.069L319.167 385.547C319.463 385.425 319.752 385.304 320.048 385.182L337.222 407.045L327.442 411.13ZM351.364 380.542C346.029 378.351 335.489 376.016 320.299 381.728C320.177 381.744 320.056 381.782 319.942 381.827L315.77 383.569L305.473 358.885L307.669 357.964C324.083 351.103 330.322 341.335 332.647 335.66L337.997 348.478L346.029 367.732L351.371 380.542H351.364ZM347.83 363.936L341.956 349.863C344.737 350.707 347.063 352.753 348.218 355.507C349.373 358.261 349.19 361.364 347.83 363.936Z" fill="white"/>
<path d="M369.988 344.705L354.099 351.346C353.301 351.681 352.928 352.594 353.255 353.392C353.582 354.191 354.501 354.564 355.299 354.237L371.189 347.596C371.987 347.261 372.367 346.348 372.032 345.549C371.698 344.751 370.786 344.378 369.988 344.705Z" fill="#F90A88"/>
<path d="M350.392 346.706C350.764 346.554 351.075 346.257 351.235 345.854L357.778 329.909C358.105 329.111 357.725 328.198 356.927 327.863C356.129 327.536 355.217 327.916 354.883 328.715L348.34 344.659C348.013 345.458 348.393 346.371 349.191 346.706C349.594 346.873 350.019 346.858 350.392 346.706Z" fill="#F90A88"/>
<path d="M357.193 360.132C356.395 359.805 355.483 360.185 355.148 360.984C354.822 361.783 355.202 362.696 356 363.03L371.927 369.58C372.33 369.747 372.755 369.732 373.128 369.58C373.5 369.428 373.804 369.131 373.971 368.728C374.298 367.929 373.918 367.016 373.12 366.682L357.193 360.132Z" fill="#F90A88"/>
<path d="M272.265 398.928C271.331 399.339 270.556 399.97 269.963 400.723C268.321 398.563 265.343 397.726 262.683 398.898C261.741 399.316 260.95 399.947 260.358 400.716C258.701 398.593 255.76 397.779 253.123 398.943C252.249 399.331 251.52 399.902 250.95 400.594L246.816 391.23C245.479 388.194 241.922 386.818 238.814 388.187C235.706 389.556 234.414 393.086 235.76 396.121L245.957 419.208C238.624 418.402 236.238 420.905 235.585 423.324C234.452 427.523 238.586 433.045 242.591 434.422C251.733 437.96 263.868 452.253 263.99 452.39C264.469 452.961 265.267 453.143 265.943 452.839L289.963 442.212C290.777 441.847 291.172 440.911 290.845 440.074C288.406 433.799 286.042 415.313 286.02 415.123C286.02 415.123 286.02 415.116 286.02 415.108C286.004 415.009 285.982 414.91 285.951 414.811C285.951 414.796 285.944 414.789 285.936 414.773C285.921 414.735 285.913 414.69 285.898 414.652L280.282 401.933C278.945 398.905 275.389 397.528 272.273 398.913M287.205 439.785L265.723 449.294C262.744 445.909 252.386 434.635 243.739 431.288C241.048 430.36 238.244 426.321 238.814 424.206C239.285 422.472 242.606 421.962 247.553 422.829L250.806 430.2C251.178 431.045 252.166 431.425 253.009 431.052C253.853 430.68 254.233 429.691 253.86 428.846L238.814 394.782C238.222 393.436 238.822 391.853 240.243 391.222C241.58 390.629 243.161 391.245 243.754 392.591L250.061 406.87L253.556 414.781C253.929 415.625 254.917 416.006 255.76 415.633C256.604 415.26 256.984 414.271 256.611 413.427L253.116 405.516C252.523 404.177 253.131 402.602 254.552 401.971C255.889 401.377 257.462 401.986 258.055 403.332L259.598 406.832L262.318 412.993C262.691 413.838 263.678 414.218 264.522 413.845C265.365 413.473 265.745 412.484 265.373 411.639L262.653 405.478C262.06 404.131 262.675 402.556 264.104 401.925C265.441 401.332 267.014 401.94 267.607 403.287L269.18 406.854L271.186 411.388C271.559 412.233 272.546 412.613 273.39 412.24C274.233 411.867 274.613 410.879 274.241 410.034L272.235 405.5C271.642 404.162 272.25 402.587 273.671 401.956C275.016 401.362 276.597 401.963 277.19 403.31L282.699 415.785C282.965 417.824 284.918 432.597 287.175 439.785" fill="white"/>
<path d="M256.103 391.686C257.007 391.435 257.531 390.515 257.296 389.617C257.068 388.78 256.779 387.959 256.437 387.175C252.759 378.853 243.01 375.072 234.689 378.754C226.383 382.428 222.614 392.196 226.284 400.518C227.196 402.587 228.488 404.405 230.129 405.919C230.638 406.39 231.36 406.489 231.961 406.223C232.166 406.132 232.356 406.002 232.515 405.828C233.146 405.143 233.108 404.078 232.424 403.439C231.132 402.237 230.106 400.792 229.377 399.149C226.451 392.53 229.453 384.764 236.056 381.843C242.66 378.921 250.426 381.919 253.352 388.537C253.625 389.161 253.861 389.822 254.043 390.492C254.287 391.389 255.214 391.922 256.11 391.686" fill="white"/>
<path d="M218.321 404.04C212.705 391.321 218.465 376.396 231.163 370.774C243.869 365.153 258.778 370.926 264.394 383.645C265.268 385.631 265.891 387.708 266.225 389.83C266.377 390.75 267.243 391.374 268.163 391.23C269.082 391.077 269.705 390.218 269.561 389.297C269.173 386.886 268.474 384.528 267.479 382.284C261.111 367.861 244.203 361.311 229.795 367.693C215.395 374.068 208.86 390.994 215.228 405.417C217.667 410.939 221.695 415.466 226.877 418.501C227.364 418.782 227.933 418.798 228.412 418.585C228.724 418.448 228.997 418.212 229.187 417.892C229.658 417.086 229.385 416.051 228.579 415.58C224.012 412.91 220.464 408.916 218.313 404.047" fill="#F90A88"/>
<path d="M224.863 356.504C204.3 365.602 194.968 389.761 204.064 410.346C207.97 419.193 214.893 426.374 223.563 430.566C224.027 430.794 224.544 430.786 224.985 430.588C225.334 430.429 225.638 430.155 225.82 429.782C226.223 428.945 225.874 427.934 225.038 427.53C217.089 423.681 210.736 417.094 207.157 408.984C198.813 390.096 207.37 367.945 226.231 359.592C245.099 351.239 267.228 359.813 275.571 378.701C277.068 382.094 278.056 385.654 278.505 389.282C278.619 390.21 279.462 390.864 280.382 390.75C281.309 390.636 281.962 389.792 281.848 388.871C281.362 384.908 280.29 381.029 278.657 377.332C269.561 356.739 245.434 347.398 224.863 356.504Z" fill="white"/>
<path d="M130.953 163.475L107.07 210.837C106.614 211.734 105.383 211.863 104.752 211.08L71.8404 170.215C71.1565 169.363 71.6808 168.085 72.7599 167.963L129.555 161.474C130.649 161.353 131.447 162.494 130.953 163.483V163.475Z" stroke="white" stroke-width="5" stroke-linecap="round" stroke-linejoin="round"/>
<path d="M118.551 169.142L83.4814 184.973C83.261 185.071 83.1091 185.262 83.0559 185.497L80.1302 198.361C79.9707 199.053 80.761 199.563 81.3309 199.137L119.326 170.451C120.048 169.903 119.379 168.777 118.559 169.15L118.551 169.142Z" stroke="white" stroke-width="5" stroke-linecap="round" stroke-linejoin="round"/>
<path d="M92.7295 196.163L80.875 199.289" stroke="white" stroke-width="5" stroke-linecap="round" stroke-linejoin="round"/>
<path d="M165.804 371.056L166.496 369.405C173.252 352.784 172.522 341.487 164.345 336.672C161.519 334.801 158.099 334.025 154.74 334.489L136.024 323.672C134.74 320.53 132.361 317.959 129.329 316.437C121.077 311.759 110.939 316.772 99.936 330.936L98.8493 332.359C95.3538 336.756 90.5208 342.788 91.5618 347.801C91.9798 349.741 93.2336 351.392 94.9814 352.312L95.179 352.426C102.436 356.405 109.762 352.251 115.62 348.912C116.722 348.28 117.832 347.657 118.873 347.124C119.777 346.599 120.081 345.435 119.549 344.538C119.063 343.701 118.022 343.374 117.14 343.769C116.038 344.317 114.921 344.971 113.743 345.648C108.173 348.805 102.406 352.069 96.9951 349.117C96.1289 348.744 95.4829 347.984 95.255 347.063C94.5938 343.754 99.1077 338.11 101.798 334.732L102.93 333.294C109.663 324.562 119.405 315.167 127.429 319.716C129.595 320.811 131.343 322.591 132.407 324.775L129.192 330.647C128.706 331.552 129.025 332.678 129.899 333.196L149.535 344.545C150.439 345.07 151.594 344.758 152.119 343.853L155.386 338.186C157.871 337.897 160.379 338.528 162.438 339.951C170.387 344.629 167.127 357.774 162.94 367.975L162.263 369.679C160.683 373.703 158.061 380.443 154.869 381.523C153.965 381.812 152.97 381.637 152.225 381.044C146.966 377.834 146.906 371.2 146.852 364.795C146.852 363.441 146.852 362.133 146.784 360.908C146.678 359.866 145.751 359.113 144.717 359.219C143.76 359.318 143.023 360.124 143.015 361.091C143.083 362.262 143.091 363.532 143.099 364.81C143.137 371.558 143.205 379.986 150.28 384.292L150.477 384.406C152.149 385.463 154.208 385.722 156.085 385.114C160.941 383.508 163.738 376.305 165.797 371.071L165.804 371.056ZM149.801 340.316L133.41 330.837L135.218 327.559L151.678 337.075L149.808 340.316H149.801Z" fill="white"/>
<path d="M116.32 334.07C117.224 334.595 118.379 334.283 118.903 333.378L119.845 331.743L121.479 332.686C122.384 333.211 123.539 332.899 124.063 331.994C124.587 331.088 124.276 329.932 123.371 329.407L121.738 328.464L122.68 326.829C123.204 325.923 122.893 324.767 121.988 324.242C121.084 323.717 119.929 324.029 119.405 324.934L118.462 326.57L116.829 325.627C115.924 325.102 114.769 325.414 114.245 326.319C113.721 327.224 114.032 328.38 114.936 328.905L116.57 329.848L115.628 331.484C115.104 332.389 115.415 333.546 116.32 334.07Z" fill="white"/>
<path d="M160.752 355.378C160.965 355.507 161.2 355.591 161.451 355.606C161.694 355.652 161.945 355.629 162.181 355.545C162.424 355.499 162.659 355.393 162.842 355.226C163.047 355.089 163.214 354.898 163.328 354.685C163.586 354.252 163.647 353.735 163.503 353.255C163.298 352.533 162.69 351.993 161.945 351.878C161.702 351.833 161.451 351.848 161.216 351.932C160.729 352.046 160.311 352.358 160.061 352.799C159.567 353.704 159.871 354.845 160.752 355.385V355.378Z" fill="white"/>
<path d="M155.234 347.17C155.28 347.413 155.386 347.641 155.553 347.832C155.69 348.037 155.88 348.204 156.1 348.318C156.534 348.577 157.05 348.638 157.529 348.486C157.772 348.44 158.008 348.334 158.19 348.166C158.395 348.022 158.563 347.839 158.677 347.626C158.935 347.193 158.996 346.675 158.851 346.196C158.578 345.207 157.559 344.614 156.564 344.872C156.078 344.986 155.66 345.298 155.409 345.74C155.28 345.953 155.204 346.188 155.181 346.432C155.128 346.675 155.151 346.934 155.234 347.17Z" fill="white"/>
<path d="M150.752 354.936C150.797 355.18 150.904 355.408 151.071 355.598C151.208 355.804 151.398 355.971 151.618 356.085C152.051 356.344 152.568 356.405 153.047 356.253C153.29 356.207 153.525 356.1 153.708 355.933C153.913 355.788 154.08 355.606 154.194 355.393C154.452 354.959 154.513 354.442 154.369 353.963C154.095 352.974 153.077 352.381 152.082 352.639C151.595 352.753 151.177 353.065 150.927 353.506C150.797 353.719 150.721 353.955 150.699 354.199C150.645 354.442 150.668 354.701 150.752 354.936Z" fill="white"/>
<path d="M129.991 341.967C127.278 340.399 123.813 341.328 122.247 344.043C120.682 346.759 121.609 350.228 124.322 351.795C127.035 353.362 130.5 352.434 132.065 349.718C133.631 347.002 132.703 343.534 129.991 341.967ZM126.214 348.524C125.31 347.999 124.998 346.843 125.522 345.937C126.047 345.032 127.202 344.72 128.106 345.245C129.01 345.77 129.322 346.926 128.798 347.832C128.273 348.737 127.118 349.049 126.214 348.524Z" fill="#F90A88"/>
<path d="M142.498 349.201C139.786 347.634 136.32 348.562 134.755 351.277C133.19 353.993 134.117 357.462 136.83 359.029C139.542 360.596 143.008 359.668 144.573 356.952C146.138 354.237 145.211 350.768 142.498 349.201ZM138.722 355.75C137.817 355.226 137.506 354.069 138.03 353.164C138.555 352.259 139.71 351.947 140.614 352.472C141.518 352.997 141.83 354.153 141.305 355.058C140.781 355.963 139.626 356.275 138.722 355.75Z" fill="#F90A88"/>
<path d="M102.853 263.401H99.7758C97.5179 263.401 95.6875 265.233 95.6875 267.494V301.444C95.6875 303.704 97.5179 305.536 99.7758 305.536H102.853C105.111 305.536 106.942 303.704 106.942 301.444V267.494C106.942 265.233 105.111 263.401 102.853 263.401Z" fill="#F90A88"/>
<path d="M80.2695 282.928V286.009C80.2695 288.269 82.0999 290.102 84.3578 290.102H118.272C120.53 290.102 122.361 288.269 122.361 286.009V282.928C122.361 280.668 120.53 278.836 118.272 278.836H84.3578C82.0999 278.836 80.2695 280.668 80.2695 282.928Z" fill="#F90A88"/>
<path d="M74.064 57.0259L74.0569 57.0232C72.6059 56.4694 70.9812 57.1979 70.428 58.6504L64.9352 73.0724C64.382 74.5249 65.1098 76.1513 66.5608 76.7051L66.5679 76.7078C68.0188 77.2616 69.6435 76.533 70.1967 75.0805L75.6895 60.6585C76.2427 59.2061 75.5149 57.5797 74.064 57.0259Z" fill="white"/>
<path d="M60.477 63.1114L60.4743 63.1185C59.9211 64.571 60.6489 66.1974 62.0998 66.7512L76.5067 72.2497C77.9577 72.8035 79.5823 72.075 80.1355 70.6225L80.1382 70.6154C80.6914 69.1629 79.9637 67.5365 78.5127 66.9828L64.1058 61.4842C62.6549 60.9304 61.0302 61.6589 60.477 63.1114Z" fill="white"/>
<path d="M434.544 364.049L434.537 364.046C433.086 363.492 431.462 364.221 430.909 365.673L425.416 380.095C424.863 381.548 425.59 383.174 427.041 383.728L427.048 383.731C428.499 384.284 430.124 383.556 430.677 382.103L436.17 367.681C436.723 366.229 435.995 364.603 434.544 364.049Z" fill="#F90A88"/>
<path d="M420.948 370.127L420.945 370.134C420.392 371.587 421.12 373.213 422.571 373.767L436.977 379.266C438.428 379.819 440.053 379.091 440.606 377.638L440.609 377.631C441.162 376.179 440.434 374.552 438.983 373.999L424.577 368.5C423.126 367.946 421.501 368.675 420.948 370.127Z" fill="#F90A88"/>
<path d="M76.5308 336.487L76.5237 336.484C75.0727 335.931 73.448 336.659 72.8948 338.112L67.402 352.534C66.8488 353.986 67.5766 355.612 69.0276 356.166L69.0347 356.169C70.4856 356.723 72.1103 355.994 72.6635 354.542L78.1563 340.12C78.7095 338.667 77.9817 337.041 76.5308 336.487Z" fill="white"/>
<path d="M62.9399 342.559L62.9372 342.566C62.384 344.018 63.1118 345.645 64.5627 346.199L78.9696 351.697C80.4205 352.251 82.0452 351.522 82.5984 350.07L82.6011 350.063C83.1543 348.61 82.4265 346.984 80.9756 346.43L66.5687 340.932C65.1178 340.378 63.4931 341.106 62.9399 342.559Z" fill="white"/>
<path d="M485.748 396.518L485.74 396.515C484.29 395.961 482.665 396.69 482.112 398.143L476.619 412.565C476.066 414.017 476.793 415.643 478.244 416.197L478.251 416.2C479.702 416.754 481.327 416.025 481.88 414.573L487.373 400.151C487.926 398.698 487.199 397.072 485.748 396.518Z" fill="white"/>
<path d="M472.153 402.593L472.15 402.6C471.597 404.053 472.325 405.679 473.776 406.233L488.183 411.732C489.633 412.285 491.258 411.557 491.811 410.104L491.814 410.097C492.367 408.645 491.639 407.019 490.189 406.465L475.782 400.966C474.331 400.412 472.706 401.141 472.153 402.593Z" fill="white"/>
<path d="M395.462 417.048C405.887 417.048 414.338 408.588 414.338 398.152C414.338 387.716 405.887 379.256 395.462 379.256C385.037 379.256 376.586 387.716 376.586 398.152C376.586 408.588 385.037 417.048 395.462 417.048Z" stroke="white" stroke-width="5" stroke-linecap="round" stroke-linejoin="round"/>
<path d="M106.94 92.2429C117.365 92.2429 125.817 83.7829 125.817 73.347C125.817 62.9111 117.365 54.4511 106.94 54.4511C96.5155 54.4511 88.0645 62.9111 88.0645 73.347C88.0645 83.7829 96.5155 92.2429 106.94 92.2429Z" stroke="white" stroke-width="5" stroke-linecap="round" stroke-linejoin="round"/>
<path d="M37.1068 269.776C56.5507 269.776 72.3131 253.997 72.3131 234.532C72.3131 215.068 56.5507 199.289 37.1068 199.289C17.6628 199.289 1.90039 215.068 1.90039 234.532C1.90039 253.997 17.6628 269.776 37.1068 269.776Z" stroke="white" stroke-width="5" stroke-linecap="round" stroke-linejoin="round"/>
<path d="M79.083 453.379C105.024 453.379 126.053 432.328 126.053 406.36C126.053 380.392 105.024 359.341 79.083 359.341C53.1423 359.341 32.1133 380.392 32.1133 406.36C32.1133 432.328 53.1423 453.379 79.083 453.379Z" stroke="white" stroke-width="5" stroke-linecap="round" stroke-linejoin="round"/>
<path d="M72.3194 131.906C82.7443 131.906 91.1954 123.446 91.1954 113.01C91.1954 102.574 82.7443 94.1142 72.3194 94.1142C61.8944 94.1142 53.4434 102.574 53.4434 113.01C53.4434 123.446 61.8944 131.906 72.3194 131.906Z" fill="#F90A88"/>
<path d="M71.5295 26.7159C78.8991 26.7159 84.8734 20.7353 84.8734 13.3579C84.8734 5.98056 78.8991 0 71.5295 0C64.1598 0 58.1855 5.98056 58.1855 13.3579C58.1855 20.7353 64.1598 26.7159 71.5295 26.7159Z" fill="#F90A88"/>
<path d="M31.5738 286.146L23.4048 328.487C22.4473 333.454 27.2195 337.592 31.9917 335.942L72.7074 321.854C77.4796 320.203 78.6803 313.995 74.8655 310.686L42.3188 282.426C38.5041 279.11 32.5389 281.179 31.5738 286.138V286.146Z" fill="#F90A88"/>
<path d="M176.912 384.087L140.802 407.608C136.569 410.361 136.904 416.675 141.402 418.965L179.8 438.515C184.299 440.805 189.595 437.359 189.329 432.308L187.042 389.244C186.776 384.193 181.145 381.333 176.912 384.087Z" fill="#F90A88"/>
</g>
</g>
<defs>
<clipPath id="clip0_1887_17229">
<rect width="492" height="492" fill="white"/>
</clipPath>
</defs>
</svg>
