<svg width="48" height="65" viewBox="0 0 48 65" fill="none" xmlns="http://www.w3.org/2000/svg">
<path d="M37.2632 63.9987L24.3711 60.3691C24.0465 60.2771 23.7004 60.2825 23.3794 60.3817L12.0055 63.9176C10.8804 64.2674 9.73901 63.4271 9.73901 62.2479V46.0868C9.73901 45.1221 10.5215 44.3396 11.4862 44.3396H37.7374C38.7021 44.3396 39.4846 45.1221 39.4846 46.0868V62.3128C39.4846 63.4722 38.3775 64.3088 37.2632 63.9951V63.9987Z" fill="#F7BFD9"/>
<path d="M0.375488 18.0415V38.1261C0.375488 41.067 1.89189 43.7987 4.38737 45.3547L19.573 54.8173C22.3299 56.5357 25.8243 56.5357 28.5813 54.8173L43.7669 45.3547C46.2624 43.7987 47.7788 41.067 47.7788 38.1261V18.0415C47.7788 15.1007 46.2624 12.369 43.7669 10.8129L28.5813 1.35028C25.8243 -0.368063 22.3299 -0.368063 19.573 1.35028L4.38737 10.8129C1.89189 12.369 0.375488 15.1007 0.375488 18.0415Z" fill="#FFE6F5"/>
<g style="mix-blend-mode:multiply">
<path d="M26.825 13.6455C30.5556 11.0724 35.5971 13.1911 36.4716 17.5708C36.5617 17.5762 36.6338 17.5221 36.7096 17.4842C37.3352 17.1687 38.5037 16.2672 39.077 16.1175C39.5783 15.9859 40.0038 16.2852 40.1769 16.7396L40.2076 36.689C40.1895 37.0261 39.9696 37.311 39.6883 37.4751C36.7565 39.0204 33.9292 41.1588 30.9974 42.6536C30.7053 42.8032 30.525 42.9403 30.1698 42.8664L21.4446 37.6843L11.1994 42.7708C10.6675 43.0521 10.0707 42.7762 9.88318 42.2281L9.85254 22.2787L10.1284 21.6656L21.2337 16.1139C21.322 16.0886 21.4122 16.0796 21.5041 16.0814C22.036 16.0995 23.5037 17.2408 24.0988 17.5221C24.1511 17.5473 24.1961 17.5798 24.2592 17.569C24.5712 15.9732 25.4908 14.565 26.825 13.6437V13.6455ZM30.4384 27.2732C31.3129 25.9227 31.8701 24.0114 32.7482 22.6501C33.1881 21.9685 33.9112 21.6386 34.3475 20.7514C36.2426 16.8982 32.1117 12.8305 28.2981 14.8211C25.3501 16.3591 25.1157 20.4972 27.8167 22.4013L30.3068 27.3508C30.4456 27.3814 30.4024 27.3327 30.4384 27.275V27.2732ZM11.634 40.5674L20.5845 36.1228V18.4002L11.634 22.8448V40.5674ZM38.4261 36.1823V18.5787L36.5347 19.6804C36.2714 21.2202 35.4997 22.6122 34.2862 23.5949L31.2552 29.6317V40.3889L38.4279 36.1805L38.4261 36.1823ZM22.3642 36.1823L29.4774 40.3907V29.6335L26.4464 23.5967C25.2005 22.5996 24.4774 21.204 24.1691 19.6516L22.366 18.5805V36.1841L22.3642 36.1823Z" fill="#FC0A8B"/>
<path d="M29.7119 21.3356C26.5943 20.5765 27.3516 15.8001 30.6152 16.1067C34.335 16.4546 33.4118 22.2372 29.7119 21.3356ZM30.9975 19.3883C31.8215 18.5643 30.5557 17.3003 29.7335 18.1243C28.9113 18.9483 30.1753 20.2123 30.9975 19.3883Z" fill="#FC0A8B"/>
</g>
</svg>
