<svg width="48" height="65" viewBox="0 0 48 65" fill="none" xmlns="http://www.w3.org/2000/svg">
<path d="M37.263 64.7072L24.3709 61.0776C24.0463 60.9856 23.7001 60.991 23.3792 61.0902L12.0052 64.6261C10.8801 64.9759 9.73877 64.1356 9.73877 62.9564V46.7953C9.73877 45.8306 10.5213 45.0481 11.486 45.0481H37.7372C38.7018 45.0481 39.4844 45.8306 39.4844 46.7953V63.0213C39.4844 64.1807 38.3773 65.0173 37.263 64.7036V64.7072Z" fill="#F7BFD9"/>
<path d="M0.375488 18.75V38.8346C0.375488 41.7755 1.89189 44.5071 4.38737 46.0632L19.573 55.5258C22.3299 57.2442 25.8243 57.2442 28.5813 55.5258L43.7669 46.0632C46.2624 44.5071 47.7788 41.7755 47.7788 38.8346V18.75C47.7788 15.8091 46.2624 13.0775 43.7669 11.5214L28.5813 2.05878C25.8243 0.340433 22.3299 0.340433 19.573 2.05878L4.38737 11.5214C1.89189 13.0775 0.375488 15.8091 0.375488 18.75Z" fill="#FFE6F5"/>
<g style="mix-blend-mode:multiply">
<path d="M26.825 14.354C30.5556 11.7809 35.5971 13.8996 36.4716 18.2793C36.5617 18.2847 36.6338 18.2306 36.7096 18.1927C37.3352 17.8772 38.5036 16.9756 39.077 16.826C39.5783 16.6944 40.0038 16.9937 40.1769 17.4481L40.2076 37.3975C40.1895 37.7346 39.9696 38.0195 39.6883 38.1836C36.7565 39.7288 33.9292 41.8673 30.9974 43.3621C30.7053 43.5117 30.525 43.6488 30.1698 43.5748L21.4446 38.3928L11.1994 43.4793C10.6675 43.7606 10.0707 43.4847 9.88318 42.9365L9.85254 22.9871L10.1284 22.3741L21.2336 16.8224C21.322 16.7971 21.4122 16.7881 21.5041 16.7899C22.036 16.808 23.5037 17.9493 24.0988 18.2306C24.1511 18.2558 24.1961 18.2883 24.2592 18.2775C24.5712 16.6817 25.4907 15.2735 26.825 14.3521V14.354ZM30.4384 27.9835C31.3129 26.633 31.8701 24.7217 32.7482 23.3604C33.1881 22.6788 33.9112 22.3489 34.3475 21.4617C36.2426 17.6085 32.1117 13.5408 28.2981 15.5314C25.3501 17.0694 25.1157 21.2075 27.8167 23.1116L30.3068 28.061C30.4456 28.0917 30.4024 28.043 30.4384 27.9853V27.9835ZM11.634 41.2777L20.5845 36.8331V19.1105L11.634 23.5551V41.2777ZM38.4261 36.8908V19.2872L36.5347 20.3889C36.2714 21.9287 35.4997 23.3207 34.2862 24.3034L31.2552 30.3402V41.0974L38.4279 36.889L38.4261 36.8908ZM22.3642 36.8908L29.4774 41.0992V30.342L26.4464 24.3052C25.2005 23.3081 24.4774 21.9125 24.1691 20.36L22.366 19.289V36.8926L22.3642 36.8908Z" fill="#FC0A8B"/>
<path d="M29.7119 22.0458C26.5943 21.2867 27.3516 16.5103 30.6152 16.8169C34.335 17.1649 33.4118 22.9474 29.7119 22.0458ZM30.9975 20.0967C31.8215 19.2727 30.5557 18.0087 29.7335 18.8327C28.9113 19.6567 30.1753 20.9207 30.9975 20.0967Z" fill="#FC0A8B"/>
</g>
<path opacity="0.59" d="M44.596 38.63L7.68487 15.1357L5.93227 16.2284C5.85474 16.2771 5.78081 16.3276 5.70508 16.3799L44.5887 41.1291C44.5905 41.0588 44.596 40.9885 44.596 40.9181V38.63Z" fill="white"/>
<path opacity="0.59" d="M44.596 36.9874V28.9185L15.3949 10.3323L9.39966 14.0683L44.596 36.9874Z" fill="white"/>
<g opacity="0.59">
<path d="M3.37549 29.0936V40.1772L26.4586 55.2078C26.5939 55.1393 26.7255 55.0653 26.8553 54.9842L35.5462 49.5677L3.37729 29.0918L3.37549 29.0936Z" fill="white"/>
</g>
</svg>
