<svg width="57" height="57" viewBox="0 0 57 57" fill="none" xmlns="http://www.w3.org/2000/svg">
<rect x="0.666626" y="0.579041" width="56" height="56" rx="28" fill="#FFE9F8"/>
<path d="M41.2666 21.579V35.579C41.2666 39.779 39.1666 42.579 34.2667 42.579H23.0667C18.1667 42.579 16.0667 39.779 16.0667 35.579V21.579C16.0667 17.379 18.1667 14.579 23.0667 14.579H34.2667C39.1666 14.579 41.2666 17.379 41.2666 21.579Z" stroke="#D60085" stroke-width="2.1" stroke-miterlimit="10" stroke-linecap="round" stroke-linejoin="round"/>
<path d="M34.6167 27.1791H22.7167C21.3727 27.1791 20.2667 26.0731 20.2667 24.7291V21.2291C20.2667 19.8851 21.3727 18.7791 22.7167 18.7791H34.6167C35.9607 18.7791 37.0667 19.8851 37.0667 21.2291V24.7291C37.0667 26.0731 35.9607 27.1791 34.6167 27.1791Z" stroke="#D60085" stroke-width="2.1" stroke-miterlimit="10" stroke-linecap="round" stroke-linejoin="round"/>
<path d="M26.2866 33.1711L23.0667 36.3911" stroke="#D60085" stroke-width="2.1" stroke-miterlimit="10" stroke-linecap="round" stroke-linejoin="round"/>
<path d="M23.1077 33.2131L26.3276 36.4331" stroke="#D60085" stroke-width="2.1" stroke-miterlimit="10" stroke-linecap="round" stroke-linejoin="round"/>
<path d="M34.9529 33.2411H34.981" stroke="#D60085" stroke-width="2.8" stroke-miterlimit="10" stroke-linecap="round" stroke-linejoin="round"/>
<path d="M32.153 36.2791V36.251" stroke="#D60085" stroke-width="2.8" stroke-miterlimit="10" stroke-linecap="round" stroke-linejoin="round"/>
</svg>
