<svg width="40" height="41" viewBox="0 0 40 41" fill="none" xmlns="http://www.w3.org/2000/svg">
<rect x="0.75" y="1.3291" width="38.5" height="38.5" rx="19.25" stroke="white" stroke-width="1.5"/>
<path d="M25 28.5791H15C12 28.5791 10 26.5791 10 23.5791V17.5791C10 14.5791 12 12.5791 15 12.5791H25C28 12.5791 30 14.5791 30 17.5791V23.5791C30 26.5791 28 28.5791 25 28.5791Z" stroke="white" stroke-width="1.5" stroke-miterlimit="10" stroke-linecap="round" stroke-linejoin="round"/>
<path d="M19.4 18.0792L21.9 19.5792C22.8 20.1792 22.8 21.0792 21.9 21.6792L19.4 23.1792C18.4 23.7792 17.6 23.2792 17.6 22.1792V19.1792C17.6 17.8792 18.4 17.4792 19.4 18.0792Z" stroke="white" stroke-width="1.5" stroke-miterlimit="10" stroke-linecap="round" stroke-linejoin="round"/>
</svg>
